<?xml version="1.0" standalone="no"?>
<!DOCTYPE svg PUBLIC "-//W3C//DTD SVG 1.1//EN" "http://www.w3.org/Graphics/SVG/1.1/DTD/svg11.dtd" >
<svg>
<metadata>
Created by FontForge 20090914 at Tue Jan 31 12:16:35 2017
 By www-data
Copyrighted (c) 1981, 1997 by and the property of Linotype-Hell AG and/or its subsidiaries. All Rights Reserved. All Cyrillic characters designed by DoubleAlex. Helvetica is a registered Trademark of Linotype-Hell AG and/or its subsidiaries.
</metadata>
<defs>
<font id="HelveticaNeueCyr-Thin" horiz-adv-x="556" >
  <font-face 
    font-family="HelveticaNeueCyr"
    font-weight="100"
    font-stretch="normal"
    units-per-em="1000"
    panose-1="2 0 5 3 4 0 0 2 0 4"
    ascent="800"
    descent="-200"
    x-height="512"
    cap-height="712"
    bbox="-36.001 -214 1035 909"
    underline-thickness="50"
    underline-position="-100"
    unicode-range="U+0020-U+E001"
  />
<missing-glyph horiz-adv-x="1000" 
 />
    <glyph glyph-name=".notdef" horiz-adv-x="1000" 
 />
    <glyph glyph-name="space" unicode=" " horiz-adv-x="278" 
 />
    <glyph glyph-name="exclam" unicode="!" horiz-adv-x="259" 
d="M151 712v-200l-7 -332h-29l-7 332v200h43zM153 98v-98h-47v98h47z" />
    <glyph glyph-name="quotedbl" unicode="&#x22;" horiz-adv-x="315" 
d="M102 410h-29l-5 275h39zM241 410h-29l-5 275h39z" />
    <glyph glyph-name="numbersign" unicode="#" 
d="M135 0h-36l40 216h-122v34h128l34 186h-121v33h128l41 216h36l-42 -216h156l42 216h35l-41 -216h121v-33h-128l-34 -186h121v-34h-127l-40 -216h-36l40 216h-156zM336 250l35 186h-156l-34 -186h155z" />
    <glyph glyph-name="dollar" unicode="$" 
d="M287 776v-74.9971h2c68 0 121 -16.667 159 -50s57 -80 57 -140v-8h-40c0 54 -14.333 94.167 -43 120.5s-73.667 40.833 -135 43.5v-296c162 -22.667 243 -87.334 243 -194.001c0 -58.667 -21.833 -105.5 -65.5 -140.5s-102.167 -52.5 -175.5 -52.5h-2v-88h-28v88
c-162 3.33301 -243 75.333 -243 216v9h41c0 -2 -0.166992 -4.5 -0.5 -7.5s-0.5 -4.83301 -0.5 -5.5c0 -61.333 17.667 -105.5 53 -132.5s85.333 -42.167 150 -45.5v320c-30.667 6 -56.667 12.333 -78 19s-43.5 16.5 -66.5 29.5s-40.5 30.667 -52.5 53s-18 48.833 -18 79.5
c0 53.333 19.667 96.666 59 129.999s91.333 50.666 156 51.999v75h28zM259 377.003v289c-54.667 -2.66699 -97.5 -16.667 -128.5 -42s-46.5 -59.333 -46.5 -102c0 -82.667 58.333 -131 175 -145zM287 332.003l0.00195312 -313.999c58.667 1.33301 107 14.5 145 39.5
s57 65.167 57 120.5c0 21.333 -4.33301 40.5 -13 57.5s-18.834 30.333 -30.501 40s-27.834 18.667 -48.501 27s-38.167 14.166 -52.5 17.499s-33.5 7.33301 -57.5 12z" />
    <glyph glyph-name="percent" unicode="%" horiz-adv-x="778" 
d="M625 710l-443 -734h-36l444 734h35zM576 341c46.667 0 85.501 -16.5 116.501 -49.5s46.5 -74.5 46.5 -124.5c0 -53.333 -15.167 -96.833 -45.5 -130.5s-69.833 -50.5 -118.5 -50.5s-88.167 16.5 -118.5 49.5s-45.5 75.5 -45.5 127.5c0 51.333 15.667 93.833 47 127.5
s70.666 50.5 117.999 50.5zM208.001 700c48 0 87.333 -16.333 118 -49s46 -74.667 46 -126c0 -52.667 -15.333 -95.667 -46 -129s-70 -50 -118 -50c-48.667 0 -88.167 16.5 -118.5 49.5s-45.5 75.833 -45.5 128.5c0 50.667 15.5 92.667 46.5 126s70.167 50 117.5 50z
M573.001 310c-35.333 0 -65.166 -13.832 -89.499 -41.499s-36.5 -61.834 -36.5 -102.501c0 -44 12.167 -80 36.5 -108s55.166 -42 92.499 -42c36 0 66.167 14.167 90.5 42.5s36.5 63.5 36.5 105.5s-12.333 76.833 -37 104.5s-55.667 41.5 -93 41.5zM207.001 669.001
c-36.667 0 -67.001 -13.667 -91.001 -41s-36 -62 -36 -104c0 -43.333 12 -78.833 36 -106.5s54.667 -41.5 92 -41.5c36.667 0 67.167 14.167 91.5 42.5s36.5 63.833 36.5 106.5c0 42 -12.167 76.5 -36.5 103.5s-55.166 40.5 -92.499 40.5z" />
    <glyph glyph-name="ampersand" unicode="&#x26;" horiz-adv-x="593" 
d="M516 294c-2 -52.667 -14.335 -103.333 -37.002 -152l117 -142h-51l-87 107c-50 -80.667 -119 -121 -207 -121c-61.333 0 -111.666 17.333 -150.999 52s-59 79 -59 133c0 25.333 5.33301 49.333 16 72s26.167 43.5 46.5 62.5s39.5 34.667 57.5 47s40 25.833 66 40.5
l-34 40.5c-6.66699 8.33301 -16.167 21.5 -28.5 39.5s-21.166 34.833 -26.499 50.5s-8 31.167 -8 46.5c0 40.667 14.333 73.667 43 99s65.667 38 111 38c42.667 0 78 -12.667 106 -38s42 -57.333 42 -96c0 -22 -4 -42.167 -12 -60.5s-21 -36 -39 -53
s-32.833 -29.833 -44.5 -38.5s-29.5 -21 -53.5 -37l170 -211c14.667 40.667 23 81 25 121h38zM260.998 411.001c88 49.333 132.001 102.332 132.001 158.999c0 29.333 -10.667 53.833 -32 73.5s-47.666 29.5 -78.999 29.5c-32.667 0 -59.834 -9.66699 -81.501 -29
s-32.5 -43.666 -32.5 -72.999c0 -16 6.16699 -35.333 18.5 -58s23.166 -40 32.499 -52s23.333 -28.667 42 -50zM248.999 365c-24 -14 -43.502 -25.999 -58.502 -35.999s-32 -23.333 -51 -40s-33.333 -34.834 -43 -54.501s-14.5 -40.834 -14.5 -63.501
c0 -43.333 16.333 -79.5 49 -108.5s73.334 -43.5 122.001 -43.5c37.333 0 71.833 10.333 103.5 31s57.834 49.334 78.501 86.001z" />
    <glyph glyph-name="quotesingle" unicode="'" horiz-adv-x="204" 
d="M116 410h-29l-5 275h39z" />
    <glyph glyph-name="parenleft" unicode="(" horiz-adv-x="241" 
d="M231 720c-38.667 -64 -68.833 -135.999 -90.5 -215.999s-32.5 -159.667 -32.5 -239c0 -150.667 41 -300.334 123 -449.001h-35c-85.333 150 -128 300.667 -128 452c0 156 42.667 306.667 128 452h35z" />
    <glyph glyph-name="parenright" unicode=")" horiz-adv-x="241" 
d="M173 268c0 -151.333 -42.666 -302.001 -127.999 -452.001h-35c82 148.667 123 298.334 123 449.001c0 79.333 -10.833 159 -32.5 239s-51.834 152 -90.501 216h35c85.333 -145.333 128 -296 128 -452z" />
    <glyph glyph-name="asterisk" unicode="*" horiz-adv-x="352" 
d="M323 611l-125 -41l78 -105l-23 -17l-77 105l-80 -103l-24 17l80 103l-123 41l9 27l123 -42v130h29v-130l123 42z" />
    <glyph glyph-name="plus" unicode="+" horiz-adv-x="600" 
d="M283 29v225h-227v33h227v224h35v-224h227v-33h-227v-225h-35z" />
    <glyph glyph-name="comma" unicode="," horiz-adv-x="278" 
d="M164 102v-85c0 -36 -4.16699 -66.333 -12.5 -91s-25.5 -42.667 -51.5 -54v34c22 14 33.333 45.333 34 94h-20v102h50z" />
    <glyph glyph-name="hyphen" unicode="-" horiz-adv-x="352" 
d="M283 290v-39h-214v39h214z" />
    <glyph glyph-name="period" unicode="." horiz-adv-x="278" 
d="M164 102v-102h-50v102h50z" />
    <glyph glyph-name="slash" unicode="/" horiz-adv-x="333" 
d="M344 718l-318 -727h-36l319 727h35z" />
    <glyph glyph-name="zero" unicode="0" 
d="M278 700c38 0 72.001 -7.33301 102.001 -22s54 -33.667 72 -57s33 -51 45 -83s20.167 -63.833 24.5 -95.5s6.5 -64.834 6.5 -99.501c0 -44.667 -3.83301 -86.5 -11.5 -125.5s-20.5 -76.833 -38.5 -113.5s-44.167 -65.667 -78.5 -87s-75.5 -32 -123.5 -32
c-80 0 -141.333 29.833 -184 89.5s-64 145.5 -64 257.5c0 44.667 3.83301 86.834 11.5 126.501s20.167 78.5 37.5 116.5s43.166 68.333 77.499 91s75.5 34 123.5 34zM278.001 662c-66 0 -117.331 -29.168 -153.998 -87.501s-55 -139.833 -55 -244.5
c0 -29.333 1.66699 -57.333 5 -84s9.66602 -54.167 18.999 -82.5s21.5 -52.666 36.5 -72.999s35 -37 60 -50s53.833 -19.5 86.5 -19.5c40.667 0 75.667 10 105 30s51.166 46.833 65.499 80.5s24.5 67.667 30.5 102s9 70.5 9 108.5s-2.83301 74 -8.5 108
s-15.667 67.833 -30 101.5s-36 60.5 -65 80.5s-63.833 30 -104.5 30z" />
    <glyph glyph-name="one" unicode="1" 
d="M333 688v-687.998h-42v614c-28.667 -28.667 -56.334 -49.334 -83.001 -62.001s-60 -21.334 -100 -26.001v34c46 10 81.833 23.5 107.5 40.5s52.834 46.167 81.501 87.5h36z" />
    <glyph glyph-name="two" unicode="2" 
d="M505 37l0.00195312 -36.998h-459c4 51.333 19.833 94.666 47.5 129.999s67.167 70.333 118.5 105l62 42l51 36c11.333 8 26.666 20.5 45.999 37.5s33.833 32.333 43.5 46s18.5 30.5 26.5 50.5s12 40.667 12 62c0 47.333 -15.333 85 -46 113s-72.334 42 -125.001 42
c-62 0 -107.333 -18.833 -136 -56.5s-43.667 -88.167 -45 -151.5h-41c0.666992 6 1 13 1 21c2.66699 68 23.334 122.167 62.001 162.5s92.334 60.5 161.001 60.5c64 0 115 -17.333 153 -52s57 -80.667 57 -138c0 -42.667 -10.333 -80.167 -31 -112.5
s-50.334 -63.833 -89.001 -94.5c-28 -22 -68 -50.667 -120 -86c-26.667 -18 -44.667 -30.5 -54 -37.5s-23.833 -19 -43.5 -36s-34.334 -33.833 -44.001 -50.5s-16.5 -35.334 -20.5 -56.001h413z" />
    <glyph glyph-name="three" unicode="3" 
d="M54 471c1.33301 72 22.001 128.167 62.001 168.5s95.333 60.5 166 60.5c64 0 115.5 -16.333 154.5 -49s58.5 -75.667 58.5 -129c0 -42 -13.167 -77 -39.5 -105s-59.166 -44.333 -98.499 -49c46 -7.33301 83.5 -25.5 112.5 -54.5s43.5 -68.5 43.5 -118.5
c0 -62.667 -21.833 -113.334 -65.5 -152.001s-100.834 -58 -171.501 -58c-73.333 0 -131.666 20 -174.999 60s-65 94 -65 162v20h39v-14c0 -60 17.833 -107 53.5 -141s85.167 -51 148.5 -51c57.333 0 104.166 15.833 140.499 47.5s54.5 72.5 54.5 122.5
c0 105.333 -69.667 158 -209 158h-23v34h28c59.333 0 105.166 11.833 137.499 35.5s48.5 57.834 48.5 102.501c0 43.333 -15.667 78 -47 104s-73.333 39 -126 39c-59.333 0 -105.333 -16.5 -138 -49.5s-50 -80.833 -52 -143.5h-37z" />
    <glyph glyph-name="four" unicode="4" 
d="M518 211v-35h-113v-176h-40v176h-333v41l333 473h40v-479h113zM365 211v343.001c0 32.667 0.333008 61.667 1 87c-28.667 -44.667 -44.667 -69.334 -48 -74.001l-251 -356h298z" />
    <glyph glyph-name="five" unicode="5" 
d="M478 685l-0.000976562 -37.998h-320l-57 -270c40.667 56 99 84 175 84c67.333 0 123 -22.333 167 -67s66 -101.334 66 -170.001s-22.5 -125.667 -67.5 -171s-101.833 -68 -170.5 -68c-70.667 0 -127 20.167 -169 60.5s-63.667 94.833 -65 163.5h39
c2 -56.667 19.833 -102.334 53.5 -137.001s80.834 -52 141.501 -52c57.333 0 104.5 19.167 141.5 57.5s55.5 86.833 55.5 145.5s-18.667 107.167 -56 145.5s-84.666 57.5 -141.999 57.5c-74.667 0 -132.334 -31.333 -173.001 -94l-39 1l71 352h349z" />
    <glyph glyph-name="six" unicode="6" 
d="M506 518l-41.0029 -0.00292969c-5.33301 42.667 -24 77.834 -56 105.501s-70.667 41.5 -116 41.5c-35.333 0 -66.166 -8.16699 -92.499 -24.5s-47 -36.666 -62 -60.999s-27 -53.666 -36 -87.999s-14.833 -66 -17.5 -95s-4 -59.5 -4 -91.5
c16.667 46.667 43.334 83.167 80.001 109.5s80.334 39.5 131.001 39.5c65.333 0 119.666 -22.167 162.999 -66.5s65 -99.833 65 -166.5c0 -67.333 -22.333 -123.5 -67 -168.5s-100.667 -67.5 -168 -67.5c-85.333 0 -149.666 34 -192.999 102
c-32.667 51.333 -49 128.333 -49 231c0 123.333 21.667 217.833 65 283.5s105.333 98.5 186 98.5c58 0 106 -16.667 144 -50s60.667 -77.333 68 -132zM283.997 418.997c-54 0 -99.5 -18.999 -136.5 -56.999s-55.5 -85 -55.5 -141c0 -56.667 18.5 -104.334 55.5 -143.001
s83.167 -58 138.5 -58s101.333 19.167 138 57.5s55 85.833 55 142.5c0 57.333 -18.5 104.833 -55.5 142.5s-83.5 56.5 -139.5 56.5z" />
    <glyph glyph-name="seven" unicode="7" 
d="M499 685v-40c-88 -86.667 -158.333 -188.167 -211 -304.5s-80.667 -229.833 -84 -340.5h-43c2.66699 112 32 228.333 88 349s127 220 213 298h-406v38h443z" />
    <glyph glyph-name="eight" unicode="8" 
d="M193 373c-86 20 -129 71 -129 153c0 54 19.167 96.5 57.5 127.5s90.5 46.5 156.5 46.5c66.667 0 119 -15.167 157 -45.5s57 -72.5 57 -126.5c0 -40.667 -11.833 -74.5 -35.5 -101.5s-54.5 -44.833 -92.5 -53.5c46.667 -6.66699 84.334 -25.5 113.001 -56.5
s43 -71.167 43 -120.5c0 -65.333 -21.333 -116.833 -64 -154.5s-101.334 -56.5 -176.001 -56.5c-76 0 -135.833 18.5 -179.5 55.5s-65.5 87.5 -65.5 151.5c0 50 14.667 90.833 44 122.5s67.333 51.167 114 58.5zM277 664c-54.667 0 -97.001 -12.167 -127.001 -36.5
s-45 -58.5 -45 -102.5c0 -42.667 15.5 -76 46.5 -100s73.5 -36 127.5 -36c53.333 0 95.333 12.167 126 36.5s46 57.833 46 100.5c0 44 -15.167 78 -45.5 102s-73.166 36 -128.499 36zM275.999 356c-62 0 -110.667 -14.5 -146 -43.5s-53 -68.833 -53 -119.5
c0 -54 17.833 -96.333 53.5 -127s85.167 -46 148.5 -46c62 0 110.667 15.5 146 46.5s53 73.167 53 126.5c0 51.333 -17.833 91.333 -53.5 120s-85.167 43 -148.5 43z" />
    <glyph glyph-name="nine" unicode="9" 
d="M53 163l39.999 0.000976562c7.33301 -43.333 26.833 -77.833 58.5 -103.5s70.167 -38.5 115.5 -38.5c66.667 0 117.834 28.167 153.501 84.5s53.5 137.166 53.5 242.499v38c-39.333 -102.667 -109.333 -154 -210 -154c-66 0 -120.833 22 -164.5 66
s-65.5 99.333 -65.5 166c0 67.333 22.167 123.5 66.5 168.5s99.833 67.5 166.5 67.5c84 0 148 -32.333 192 -97c36 -53.333 54 -133.333 54 -240c0 -252 -82.333 -378 -247 -378c-57.333 0 -105.5 16.167 -144.5 48.5s-61.833 75.5 -68.5 129.5zM266.999 664.001
c-54 0 -99.501 -19.001 -136.501 -57.001s-55.5 -85.333 -55.5 -142s18.333 -103.667 55 -141s82.667 -56 138 -56s101.5 18.833 138.5 56.5s55.5 84.834 55.5 141.501c0 56 -18.667 103 -56 141s-83.666 57 -138.999 57z" />
    <glyph glyph-name="colon" unicode=":" horiz-adv-x="278" 
d="M164 102v-102h-50v102h50zM164 512v-102h-50v102h50z" />
    <glyph glyph-name="semicolon" unicode=";" horiz-adv-x="278" 
d="M164 102v-85c0 -36 -4.16699 -66.333 -12.5 -91s-25.5 -42.667 -51.5 -54v34c22 14 33.333 45.333 34 94h-20v102h50zM164 512v-102h-50v102h50z" />
    <glyph glyph-name="less" unicode="&#x3c;" horiz-adv-x="600" 
d="M55 252v36l489 203v-36l-447 -185l447 -183v-37z" />
    <glyph glyph-name="equal" unicode="=" horiz-adv-x="600" 
d="M55 343v33h489v-33h-489zM55 160v33h489v-33h-489z" />
    <glyph glyph-name="greater" unicode="&#x3e;" horiz-adv-x="600" 
d="M545 252l-489 -202v37l448 183l-448 185v36l489 -203v-36z" />
    <glyph glyph-name="question" unicode="?" horiz-adv-x="519" 
d="M43 491c0 67.333 18.334 123.499 55.001 168.499s90.667 67.5 162 67.5c60.667 0 109.834 -16.667 147.501 -50s56.5 -76.333 56.5 -129c0 -22 -2.66699 -42 -8 -60s-15.5 -36.333 -30.5 -55s-26.667 -32.167 -35 -40.5s-24.166 -23.166 -47.499 -44.499
c-30.667 -28.667 -49.667 -52 -57 -70s-11 -51 -11 -99h-39v11c0 46 5.16699 80.333 15.5 103s32.166 49.667 65.499 81c23.333 22 40.666 39 51.999 51s23.166 29.5 35.499 52.5s18.5 46.167 18.5 69.5c0 42 -15.333 76.5 -46 103.5s-70 40.5 -118 40.5
c-59.333 0 -103.833 -19.5 -133.5 -58.5s-44.167 -86.167 -43.5 -141.5h-39zM278.001 101.999v-102h-46v102h46z" />
    <glyph glyph-name="at" unicode="@" horiz-adv-x="800" 
d="M708 110l15.002 -19.998c-50.667 -35.333 -99.667 -61.333 -147 -78s-100.333 -25 -159 -25c-110 0 -202.5 32.5 -277.5 97.5s-112.5 150.833 -112.5 257.5c0 112.667 40.167 204.5 120.5 275.5s176.5 106.5 288.5 106.5c94 0 173 -26.5 237 -79.5s96 -124.5 96 -214.5
c0 -62.667 -18.667 -121.5 -56 -176.5s-85.666 -82.5 -144.999 -82.5c-20.667 0 -38 6 -52 18s-21 28 -21 48c0 4 2.66699 19.333 8 46c-35.333 -74.667 -85.333 -112 -150 -112c-42 0 -74.667 14.167 -98 42.5s-35 63.5 -35 105.5c0 57.333 19 111.166 57 161.499
s84.667 75.5 140 75.5c36.667 0 66 -10.5 88 -31.5s34 -49.167 36 -84.5l31 103h35l-59 -191c-16.667 -57.333 -25 -94 -25 -110c0 -14.667 5 -25.834 15 -33.501s22.667 -11.5 38 -11.5c33.333 0 63.166 13.5 89.499 40.5s45.666 58 57.999 93s18.5 68.5 18.5 100.5
c0 84 -30 149.333 -90 196s-132.333 70 -217 70c-105.333 0 -195.166 -33.5 -269.499 -100.5s-111.5 -151.833 -111.5 -254.5c0 -66.667 17.167 -125.5 51.5 -176.5s78.666 -89.167 132.999 -114.5s113.833 -38 178.5 -38c55.333 0 105.166 7.83301 149.499 23.5
s91.5 40.167 141.5 73.5zM522.002 422.002c0 31.333 -8.83301 57.166 -26.5 77.499s-42.167 30.5 -73.5 30.5c-46 0 -84.667 -23.167 -116 -69.5s-47 -94.166 -47 -143.499c0 -34 8.66699 -62.333 26 -85s42.333 -34 75 -34c36 0 66.333 14.167 91 42.5
s43.667 62.5 57 102.5c9.33301 30 14 56.333 14 79z" />
    <glyph glyph-name="A" unicode="A" horiz-adv-x="593" 
d="M322 712l283 -712h-48l-89 230h-343l-91 -230h-47l289 712h46zM454 266l-129.999 330.001c-3.33301 8 -7.83301 20.667 -13.5 38s-9.83398 29.666 -12.501 36.999l-27 -72l-133 -333h316z" />
    <glyph glyph-name="B" unicode="B" horiz-adv-x="630" 
d="M62 712h293c61.333 0 113 -15 155 -45s63 -74 63 -132c0 -41.333 -12.5 -76.833 -37.5 -106.5s-58.167 -48.167 -99.5 -55.5c48 -5.33301 86.833 -23.666 116.5 -54.999s44.5 -71.333 44.5 -120c0 -68.667 -27.667 -121.334 -83 -158.001
c-40.667 -26.667 -99.667 -40 -177 -40h-275v712zM105 675v-288h224c134 0 201 47.667 201 143c0 50.667 -17.5 87.5 -52.5 110.5s-79.833 34.5 -134.5 34.5h-238zM105 351v-313h229c146.667 0 220 53.667 220 161c0 101.333 -71.333 152 -214 152h-235z" />
    <glyph glyph-name="C" unicode="C" horiz-adv-x="704" 
d="M673 276c-6.66699 -86.667 -38.334 -157 -95.001 -211s-127.667 -81 -213 -81c-98 0 -176.833 33.833 -236.5 101.5s-89.5 157.167 -89.5 268.5c0 112 30.5 202.5 91.5 271.5s140.833 103.5 239.5 103.5c72 0 136.667 -21.167 194 -63.5s90 -98.166 98 -167.499h-42
c-12.667 59.333 -41.667 106.166 -87 140.499s-100.333 51.5 -165 51.5c-85.333 0 -154.333 -30.833 -207 -92.5s-79 -142.5 -79 -242.5s26 -180.5 78 -241.5s120.667 -91.5 206 -91.5c75.333 0 136.333 23.667 183 71s74.334 108.333 83.001 183h41z" />
    <glyph glyph-name="D" unicode="D" horiz-adv-x="667" 
d="M64 712l240.001 -0.000976562c105.333 0 185.666 -30.667 240.999 -92s83 -145.666 83 -252.999c0 -110.667 -26.5 -199.5 -79.5 -266.5s-134.167 -100.5 -243.5 -100.5h-241v712zM107.001 673.999v-636h183c196.667 0 295 108.667 295 326c0 96 -23.333 171.667 -70 227
s-117.667 83 -213 83h-195z" />
    <glyph glyph-name="E" unicode="E" horiz-adv-x="560" 
d="M538 712v-38h-437v-285h410v-38h-410v-313h441v-38h-484v712h480z" />
    <glyph glyph-name="F" unicode="F" horiz-adv-x="514" 
d="M518 712v-38h-405v-286h364v-37h-364v-351h-43v712h448z" />
    <glyph glyph-name="G" unicode="G" horiz-adv-x="741" 
d="M683 348l-0.000976562 -348.001h-31l-6 127l1 46c-18.667 -60 -53.167 -106.5 -103.5 -139.5s-106.833 -49.5 -169.5 -49.5c-100 0 -181 33.667 -243 101s-93 155 -93 263c0 112.667 31 204 93 274s143 105 243 105c75.333 0 141 -21.667 197 -65
s89.333 -100.333 100 -171h-41c-12.667 60.667 -42.667 108.834 -90 144.501s-102.666 53.5 -165.999 53.5c-88.667 0 -159.667 -31.167 -213 -93.5s-80 -144.833 -80 -247.5c0 -98 26.833 -177 80.5 -237s124.834 -90 213.501 -90c81.333 0 146.666 25.5 195.999 76.5
s74 118.5 74 202.5v12h-263v36h301z" />
    <glyph glyph-name="H" unicode="H" horiz-adv-x="670" 
d="M607 712v-712h-43v353h-457v-353h-43v712h43v-321h457v321h43z" />
    <glyph glyph-name="I" unicode="I" horiz-adv-x="170" 
d="M107 712v-712h-43v712h43z" />
    <glyph glyph-name="J" unicode="J" horiz-adv-x="481" 
d="M419 712v-519.001c0 -139.333 -65.667 -209 -197 -209c-70.667 0 -121.5 18 -152.5 54s-46.5 89.333 -46.5 160c0 9.33301 0.333008 18.333 1 27h41v-21c0 -61.333 11.167 -107.166 33.5 -137.499s63.5 -45.5 123.5 -45.5c57.333 0 97.333 15 120 45s34 73.333 34 130
v516h43z" />
    <glyph glyph-name="K" unicode="K" horiz-adv-x="613" 
d="M611 712l-328 -296l348 -416h-55l-324 387l-148 -135v-252h-43v712h43v-409l450 409h57z" />
    <glyph glyph-name="L" unicode="L" horiz-adv-x="500" 
d="M511 39v-39h-450v712h44v-673h406z" />
    <glyph glyph-name="M" unicode="M" horiz-adv-x="809" 
d="M746 712v-712h-42v533c0 46 2 92.333 6 139c-4 -9.33301 -9.33301 -23.5 -16 -42.5s-12 -32.833 -16 -41.5l-251 -588h-42l-252 581c-1.33301 2.66699 -12.333 32.334 -33 89.001c3.33301 -76.667 5 -122.334 5 -137.001v-533h-42v712h60l227 -528l56 -139
c12 34 28.667 75.667 50 125l231 542h59z" />
    <glyph glyph-name="N" unicode="N" horiz-adv-x="678" 
d="M608 712v-712h-49l-399 564c-26 37.333 -46.667 70 -62 98c2 -18 3 -54.333 3 -109v-553h-42v712h50l391 -554c22 -32 45 -67.667 69 -107c-2 44.667 -3 90 -3 136l-1 525h43z" />
    <glyph glyph-name="O" unicode="O" horiz-adv-x="741" 
d="M369 729c100.667 0 182.5 -35 245.5 -105s94.5 -161 94.5 -273c0 -110 -31.333 -198.833 -94 -266.5s-144.667 -101.5 -246 -101.5s-182.833 34.167 -244.5 102.5s-92.5 158.5 -92.5 270.5c0 110.667 31.167 200.5 93.5 269.5s143.5 103.5 243.5 103.5zM369 691
c-60.667 0 -113.667 -15.832 -159 -47.499s-79 -72.334 -101 -122.001s-33 -104.167 -33 -163.5c0 -100.667 27 -182 81 -244s124.667 -93 212 -93c88 0 159.333 30.667 214 92s82 141.333 82 240c0 100 -27.5 181.333 -82.5 244s-126.167 94 -213.5 94z" />
    <glyph glyph-name="P" unicode="P" horiz-adv-x="591" 
d="M66 712h276.999c68.667 0 119.334 -11 152.001 -33c53.333 -36 80 -90.667 80 -164c0 -70 -24.667 -123 -74 -159c-37.333 -27.333 -86 -41 -146 -41h-246v-315h-43v712zM108.999 674l0.000976562 -321.999h221c57.333 0 99.666 8 126.999 24c50 29.333 75 75 75 137
c0 61.333 -21 105.666 -63 132.999c-19.333 12.667 -38.5 20.5 -57.5 23.5s-44.167 4.5 -75.5 4.5h-227z" />
    <glyph glyph-name="Q" unicode="Q" horiz-adv-x="741" 
d="M711 -5l-22.001 -27.999l-117 84c-53.333 -44.667 -120 -67 -200 -67c-104 0 -186.667 34.667 -248 104s-92 157 -92 263c0 112 31.333 202.833 94 272.5s144.334 104.5 245.001 104.5c99.333 0 180.333 -34.333 243 -103s94 -157.667 94 -267
c0 -56.667 -9.33301 -109.834 -28 -159.501s-45 -91.167 -79 -124.5zM567.999 99.001c64 70 96 156.333 96 259c0 98 -27.167 177.667 -81.5 239s-124.833 92 -211.5 92c-88 0 -159.167 -31 -213.5 -93s-81.5 -143 -81.5 -243c0 -94.667 26 -173.5 78 -236.5
s124.667 -94.5 218 -94.5c64 0 119.333 18 166 54l-112 79l23 29z" />
    <glyph glyph-name="R" unicode="R" horiz-adv-x="630" 
d="M64 712h292.999c64 0 113.333 -11 148 -33c52.667 -35.333 79 -87.333 79 -156c0 -47.333 -13.667 -86.666 -41 -117.999s-64 -51.333 -110 -60c36.667 -6 66 -16.833 88 -32.5s36.333 -41.5 43 -77.5c4 -21.333 7 -54.5 9 -99.5s5.33301 -78.833 10 -101.5
c2 -10 6.66699 -21.333 14 -34h-48c-4 6 -7.33301 15.667 -10 29c-1.33301 9.33301 -2.66602 23.666 -3.99902 42.999s-2.5 40 -3.5 62s-1.83301 35.667 -2.5 41c-4.66699 62.667 -22.167 103.667 -52.5 123s-79.833 29 -148.5 29h-221v-327h-43v712zM106.999 675
l0.000976562 -311.999h215c24 0 45.667 1.16699 65 3.5s39 6.83301 59 13.5s36.667 15.667 50 27s24.166 26.666 32.499 45.999s12.5 42 12.5 68c0 57.333 -21.667 99.333 -65 126c-30.667 18.667 -75 28 -133 28h-236z" />
    <glyph glyph-name="S" unicode="S" horiz-adv-x="630" 
d="M571 509l-43.0029 -0.00292969c-7.33301 120 -82 180 -224 180c-62.667 0 -111.667 -13.167 -147 -39.5s-53 -62.833 -53 -109.5c0 -20.667 3.66699 -38.667 11 -54s17 -28 29 -38s27.667 -18.833 47 -26.5s39.166 -14 59.499 -19s44.166 -10.5 71.499 -16.5
c14.667 -2.66699 25.667 -5 33 -7l48.5 -11.5c9.66699 -2.33301 24.667 -6.66602 45 -12.999s35.5 -12.166 45.5 -17.499s22.167 -13 36.5 -23s25 -20.5 32 -31.5s13.167 -24.667 18.5 -41s8 -34.166 8 -53.499c0 -63.333 -23.667 -113 -71 -149s-112.666 -54 -195.999 -54
c-87.333 0 -156.166 21 -206.499 63s-75.5 104.667 -75.5 188h41c1.33301 -72 23.166 -125.833 65.499 -161.5s101.5 -53.5 177.5 -53.5c70 0 124.667 14.5 164 43.5s59 69.5 59 121.5c0 15.333 -2.33301 29.333 -7 42s-10.167 23.667 -16.5 33s-15.666 18 -27.999 26
s-23.166 14.333 -32.499 19s-22.5 9.5 -39.5 14.5s-29.833 8.5 -38.5 10.5l-40.5 9l-36.5 8c-74 17.333 -123 31.333 -147 42c-66.667 30 -100 79.667 -100 149c0 58 21.833 103.833 65.5 137.5s103.834 50.5 180.501 50.5c78 0 140.333 -18 187 -54
s72.334 -90.667 77.001 -164z" />
    <glyph glyph-name="T" unicode="T" horiz-adv-x="519" 
d="M533 712v-38h-252v-674h-43v674h-253v38h548z" />
    <glyph glyph-name="U" unicode="U" horiz-adv-x="672" 
d="M608 712l-0.000976562 -468.999c0 -80.667 -24.167 -143.834 -72.5 -189.501s-114.166 -68.5 -197.499 -68.5c-186.667 0 -280 98 -280 294v433h44v-435c0 -84 18.333 -147.5 55 -190.5s97 -64.5 181 -64.5c81.333 0 139.5 22 174.5 66s52.5 107 52.5 189v435h43z" />
    <glyph glyph-name="V" unicode="V" 
d="M570 712l-264.999 -712h-50l-270 712h48l213 -570c5.33301 -13.333 12 -32.5 20 -57.5l15 -46.5c3.33301 14 14.666 48 33.999 102l211 572h44z" />
    <glyph glyph-name="W" unicode="W" horiz-adv-x="889" 
d="M893 712l-204 -712.003h-49l-167 562c-14 46.667 -24 83.334 -30 110.001c-6 -25.333 -16.333 -62.666 -31 -111.999l-163 -560h-49l-207 712h46l157 -546c14 -48.667 24 -88.667 30 -120c3.33301 20.667 13.333 60 30 118l161 548h53l165 -553
c10.667 -36 20.667 -73.667 30 -113c6 32.667 15.333 70.334 28 113.001l157 553h43z" />
    <glyph glyph-name="X" unicode="X" 
d="M558 712l-254 -346l267 -366h-53l-241 333l-243 -333h-51l268 366l-253 346h52l227 -315l232 315h49z" />
    <glyph glyph-name="Y" unicode="Y" horiz-adv-x="574" 
d="M596 712l-288 -415v-297h-43v297l-287 415h52l226 -328c12 -17.333 22.667 -34 32 -50l30 48l229 330h49z" />
    <glyph glyph-name="Z" unicode="Z" horiz-adv-x="537" 
d="M528 712l-0.000976562 -42l-484 -632h493v-38h-540v43l484 631c-7.33301 0 -15.166 -0.166992 -23.499 -0.5s-21.5 -0.5 -39.5 -0.5h-391v39h501z" />
    <glyph glyph-name="bracketleft" unicode="[" horiz-adv-x="241" 
d="M231 721v-33h-98v-839h98v-33h-137v905h137z" />
    <glyph glyph-name="backslash" unicode="\" horiz-adv-x="333" 
d="M344 -9h-36l-318 727h35z" />
    <glyph glyph-name="bracketright" unicode="]" horiz-adv-x="241" 
d="M148 722v-906h-138v33h99v839h-99v34h138z" />
    <glyph glyph-name="asciicircum" unicode="^" horiz-adv-x="600" 
d="M116 274l165 411h39l165 -411h-39l-146 372l-145 -372h-39z" />
    <glyph glyph-name="underscore" unicode="_" horiz-adv-x="500" 
d="M0 -125v50h500v-50h-500z" />
    <glyph glyph-name="grave" unicode="`" horiz-adv-x="167" 
d="M19 736l121 -140h-38l-135 140h52z" />
    <glyph glyph-name="a" unicode="a" horiz-adv-x="500" 
d="M499 36l-0.00195312 -31.999c-11.333 -4 -25 -6 -41 -6c-22.667 0 -38.167 6.16699 -46.5 18.5s-12.5 34.833 -12.5 67.5v25c-22 -42.667 -48.667 -73.834 -80 -93.501s-71.333 -29.5 -120 -29.5c-53.333 0 -94.833 12.667 -124.5 38s-44.5 60.333 -44.5 105
c0 94 65.333 146.333 196 157c68.667 5.33301 111.334 9.83301 128.001 13.5s28.334 10.834 35.001 21.501c4.66699 7.33301 7 25 7 53c0 38.667 -12.333 68 -37 88s-60.667 30 -108 30c-95.333 0 -147 -45.667 -155 -137h-38c3.33301 55.333 22 97.666 56 126.999
s81 44 141 44c68.667 0 119.334 -18.333 152.001 -55c9.33301 -10.667 16.333 -23.5 21 -38.5s7.16699 -27.167 7.5 -36.5s0.5 -24 0.5 -44v-265c0 -10 0.166992 -17.333 0.5 -22s1.66602 -10 3.99902 -16s6.16602 -10.333 11.499 -13s12.333 -4 21 -4
c6.66699 0 15.334 1.33301 26.001 4zM396.998 290.001c-10 -8.66699 -21.665 -15 -34.998 -19c-20.667 -6.66699 -57.334 -12.667 -110.001 -18s-92.334 -14 -119.001 -26c-40 -18 -60 -49.333 -60 -94c0 -34.667 12 -62 36 -82s56.333 -30 97 -30
c54.667 0 100.167 17 136.5 51s54.5 76.667 54.5 128v90z" />
    <glyph glyph-name="b" unicode="b" 
d="M98 712v-321.001c34 92 99 138 195 138c69.333 0 124.333 -24.5 165 -73.5s61 -115.167 61 -198.5s-20.333 -149.666 -61 -198.999s-95.667 -74 -165 -74c-99.333 0 -165 46.333 -197 139v-123h-38v712h40zM286 493.999c-56.667 0 -102.166 -21.5 -136.499 -64.5
s-51.5 -100.167 -51.5 -171.5c0 -72.667 17.333 -130.834 52 -174.501s81 -65.5 139 -65.5c57.333 0 103.166 21.333 137.499 64s51.5 100.334 51.5 173.001c0.666992 74 -16.333 132.333 -51 175s-81.667 64 -141 64z" />
    <glyph glyph-name="c" unicode="c" horiz-adv-x="519" 
d="M489 180c-8 -61.333 -31.1699 -109.167 -69.5029 -143.5s-87.833 -51.5 -148.5 -51.5c-74.667 0 -132.5 25.5 -173.5 76.5s-61.5 115.167 -61.5 192.5c0 83.333 21.833 149.666 65.5 198.999s101.834 74 174.501 74c59.333 0 107.333 -15.167 144 -45.5
s58.334 -72.5 65.001 -126.5h-41c-5.33301 42 -23 75.5 -53 100.5s-68 37.5 -114 37.5c-60.667 0 -109.167 -21.5 -145.5 -64.5s-54.5 -100.5 -54.5 -172.5c0 -71.333 17.667 -128.666 53 -171.999s82 -65 140 -65c49.333 0 89.833 14.333 121.5 43s50.834 68 57.501 118h40
z" />
    <glyph glyph-name="d" unicode="d" 
d="M496 712l0.00195312 -711.998h-38v125c-12.667 -44.667 -36.334 -79.334 -71.001 -104.001s-76 -37 -124 -37c-70.667 0 -126.5 24.167 -167.5 72.5s-61.5 114.166 -61.5 197.499s20.833 149.833 62.5 199.5s97.167 74.5 166.5 74.5c46.667 0 86.667 -11.833 120 -35.5
s57.666 -56.5 72.999 -98.5v318h40zM264.002 493.002c-57.333 0 -103 -21.5 -137 -64.5s-51 -101.167 -51 -174.5s16.833 -131 50.5 -173s79.834 -63 138.501 -63c59.333 0 106.166 21.333 140.499 64s51.5 100.667 51.5 174c0 66 -16.167 122 -48.5 168s-80.5 69 -144.5 69
z" />
    <glyph glyph-name="e" unicode="e" horiz-adv-x="519" 
d="M485 174c-9.33301 -57.333 -33.332 -103.498 -71.999 -138.498s-87.667 -52.5 -147 -52.5c-70.667 0 -127.167 24.333 -169.5 73s-63.5 113.667 -63.5 195s21.5 147.5 64.5 198.5s99.167 76.5 168.5 76.5c72 0 127.333 -25.333 166 -76s58 -113.334 58 -188.001v-14h-415
c0 -64.667 16.167 -119.334 48.5 -164.001s80.166 -67 143.499 -67c46.667 0 85.5 13.667 116.5 41s51.5 66 61.5 116h40zM449.001 283.002c0 56.667 -15.832 105.334 -47.499 146.001s-76.834 61 -135.501 61s-103.667 -19.333 -135 -58s-50 -88.334 -56 -149.001h374z" />
    <glyph glyph-name="f" unicode="f" horiz-adv-x="241" 
d="M254 713v-36.001c-21.333 2 -34.666 3 -39.999 3c-16 0 -29.333 -2.33301 -40 -7s-18.834 -9.66699 -24.501 -15s-9.83398 -14.166 -12.501 -26.499s-4.16699 -22.333 -4.5 -30s-0.5 -19.5 -0.5 -35.5v-10v-44h107v-35h-107v-477h-40v477h-89v35h89v64
c0 46 7.83301 80.833 23.5 104.5s47.834 35.5 96.501 35.5c8 0 22 -1 42 -3z" />
    <glyph glyph-name="g" unicode="g" horiz-adv-x="537" 
d="M481 512l0.000976562 -470.998c0 -63.333 -9.66699 -112 -29 -146c-34 -60 -98.333 -90 -193 -90c-61.333 0 -109.333 13.5 -144 40.5s-54 65.833 -58 116.5h41c2.66699 -40.667 18.667 -71.334 48 -92.001s67.666 -31 114.999 -31c69.333 0 119 20 149 60
c21.333 29.333 32 76.333 32 141v108c-32.667 -87.333 -96.667 -131 -192 -131c-66 0 -118.667 22.667 -158 68s-59 105.666 -59 180.999c0 78.667 20.5 141.667 61.5 189s95.167 71 162.5 71c90 0 152.333 -43.667 187 -131v117h37zM258.001 490.002
c-56 0 -100.667 -19.8311 -134 -59.498s-50 -92.834 -50 -159.501s16.333 -119.667 49 -159s76.667 -59 132 -59c60.667 0 107 21.167 139 63.5s48 95.166 48 158.499c0 64.667 -16.833 116.667 -50.5 156s-78.167 59 -133.5 59z" />
    <glyph glyph-name="h" unicode="h" horiz-adv-x="519" 
d="M98 712l0.000976562 -282.999l-1 -33c14.667 39.333 37.5 70.666 68.5 93.999s69.5 35 115.5 35c60.667 0 106.334 -17.667 137.001 -53s46 -83.333 46 -144v-328h-40v322c0 51.333 -12.167 92.333 -36.5 123s-62.5 46 -114.5 46
c-42.667 0 -78.334 -12.833 -107.001 -38.5s-48.334 -59.5 -59.001 -101.5c-6 -24 -9 -54.333 -9 -91v-260h-40v712h40z" />
    <glyph glyph-name="i" unicode="i" horiz-adv-x="168" 
d="M104 712v-101h-40v101h40zM104 512v-512h-40v512h40z" />
    <glyph glyph-name="j" unicode="j" horiz-adv-x="168" 
d="M105 512l-0.000976562 -566c0 -48 -8 -82.167 -24 -102.5s-47 -30.5 -93 -30.5c-2.66699 0 -10.667 0.666992 -24 2v34h20c32.667 0 54.334 6.83301 65.001 20.5s16 38.167 16 73.5v569h40zM104.999 712v-100h-40v100h40z" />
    <glyph glyph-name="k" unicode="k" horiz-adv-x="463" 
d="M468 512l-225 -191l240 -321h-51l-219 293l-116 -99v-194h-40v712h40v-472c4.66699 4 11.5 10.167 20.5 18.5s15.833 14.5 20.5 18.5l275 235h55z" />
    <glyph glyph-name="l" unicode="l" horiz-adv-x="168" 
d="M104 712v-712h-40v712h40z" />
    <glyph glyph-name="m" unicode="m" horiz-adv-x="796" 
d="M97 512v-104.003c14 35.333 35.167 63.833 63.5 85.5s62.833 32.5 103.5 32.5c78 0 127.667 -36.667 149 -110c34.667 73.333 90 110 166 110c51.333 0 91.166 -15.167 119.499 -45.5s42.5 -70.166 42.5 -119.499v-361h-40v346c0 95.333 -43.333 143 -130 143
c-44 0 -79 -13.667 -105 -41c-30.667 -31.333 -46 -75.666 -46 -132.999v-315h-40v338c0 40 -5 70 -15 90c-19.333 40.667 -55.666 61 -108.999 61c-48.667 0 -87 -17.667 -115 -53s-42 -83.666 -42 -144.999v-291h-40v512h38z" />
    <glyph glyph-name="n" unicode="n" horiz-adv-x="519" 
d="M96 512l-0.000976562 -113c37.333 84.667 100.333 127 189 127c56.667 0 100.834 -16.833 132.501 -50.5s47.5 -80.167 47.5 -139.5v-336h-40v316c0 116 -49.667 174 -149 174c-67.333 0 -117.333 -28 -150 -84c-19.333 -34 -29 -81 -29 -141v-265h-40v512h39z" />
    <glyph glyph-name="o" unicode="o" horiz-adv-x="537" 
d="M270 527c71.333 0 128.5 -24.833 171.5 -74.5s64.5 -116.167 64.5 -199.5c0 -82 -21.5 -147.167 -64.5 -195.5s-100.5 -72.5 -172.5 -72.5c-72.667 0 -130.5 24.5 -173.5 73.5s-64.5 114.833 -64.5 197.5c0 81.333 21.833 146.833 65.5 196.5s101.5 74.5 173.5 74.5z
M269 492c-58.667 0 -106.169 -21.667 -142.502 -65s-54.5 -100.333 -54.5 -171c0 -72 17.833 -129.333 53.5 -172s83.834 -64 144.501 -64c58.667 0 105.667 21.167 141 63.5s53 98.833 53 169.5c0 72.667 -17.667 130.667 -53 174s-82.666 65 -141.999 65z" />
    <glyph glyph-name="p" unicode="p" 
d="M100 512v-121.999c33.333 90.667 97 136 191 136c69.333 0 124.833 -24.833 166.5 -74.5s62.5 -115.834 62.5 -198.501c0 -81.333 -20.833 -146.833 -62.5 -196.5s-96.834 -74.5 -165.501 -74.5c-47.333 0 -87.666 11.667 -120.999 35s-56.333 56.333 -69 99v-301h-40
v697h38zM289 492.001c-59.333 0 -105.668 -21.168 -139.001 -63.501s-50 -101.166 -50 -176.499c0 -42 6.16699 -80.167 18.5 -114.5s33.333 -63.166 63 -86.499s65.834 -35 108.501 -35c56.667 0 102.167 21.667 136.5 65s51.5 100.666 51.5 171.999
c0 73.333 -17 131.5 -51 174.5s-80 64.5 -138 64.5z" />
    <glyph glyph-name="q" unicode="q" 
d="M494 512l-0.00195312 -697h-40v302c-33.333 -88 -97.666 -132 -192.999 -132c-68.667 0 -123.5 24.333 -164.5 73s-61.5 114 -61.5 196c0 83.333 20.833 149.833 62.5 199.5s97.5 74.5 167.5 74.5c92.667 0 156.334 -45.333 191.001 -136v120h38zM265.998 493
c-58.667 0 -104.999 -21.5 -138.999 -64.5s-51 -101.5 -51 -175.5c0 -72 17 -129 51 -171s80 -63 138 -63s104.167 21.167 138.5 63.5s51.5 99.5 51.5 171.5c0 74.667 -16.833 133.167 -50.5 175.5s-79.834 63.5 -138.501 63.5z" />
    <glyph glyph-name="r" unicode="r" horiz-adv-x="278" 
d="M294 516v-41h-15c-59.333 0 -106.333 -23 -141 -69c-18.667 -24.667 -30.5 -51.167 -35.5 -79.5s-7.5 -63.5 -7.5 -105.5v-221h-40v512h39v-135c18.667 49.333 43.667 84.833 75 106.5s73 32.5 125 32.5z" />
    <glyph glyph-name="s" unicode="s" horiz-adv-x="481" 
d="M429 363l-40.9941 0.00195312c-4 45.333 -19.167 78 -45.5 98s-63.833 30 -112.5 30c-42.667 0 -76.5 -9 -101.5 -27s-37.5 -42.333 -37.5 -73c0 -8 0.833008 -15.333 2.5 -22s3.66699 -12.5 6 -17.5s6.16602 -10 11.499 -15l13 -12
c3.33301 -3 9.16602 -6.33301 17.499 -10l18.5 -8c4 -1.66699 11.333 -3.83398 22 -6.50098s18.167 -4.66699 22.5 -6s12.666 -3.33301 24.999 -6s20.5 -4.33398 24.5 -5.00098c24.667 -5.33301 42.334 -9.5 53.001 -12.5s26.667 -8.66699 48 -17s37.166 -17 47.499 -26
s19.833 -21.5 28.5 -37.5s13 -34.333 13 -55c0 -45.333 -18.5 -81.833 -55.5 -109.5s-85.833 -41.5 -146.5 -41.5c-64.667 0 -115.667 16.5 -153 49.5s-56 79.167 -56 138.5h40c0 -50.667 14.833 -88.667 44.5 -114s71.834 -38 126.501 -38c47.333 0 85.833 10.333 115.5 31
s44.5 48 44.5 82c0 14.667 -3.5 27.834 -10.5 39.501s-14.5 21 -22.5 28s-20.167 13.667 -36.5 20s-28.666 10.5 -36.999 12.5s-21.5 5 -39.5 9l-4.5 1.5c-1 0.333008 -2.33301 0.666016 -4 0.999023s-3.16699 0.5 -4.5 0.5c-4.66699 1.33301 -13.834 3.5 -27.501 6.5
s-23.834 5.16699 -30.501 6.5s-16.334 3.83301 -29.001 7.5s-22.334 7.16699 -29.001 10.5l-25 12.5c-10 5 -17.667 10.667 -23 17s-10.833 13.5 -16.5 21.5s-9.66699 17 -12 27s-3.5 21 -3.5 33c0 43.333 16.5 77.333 49.5 102s78.833 37 137.5 37
c59.333 0 106.166 -13.833 140.499 -41.5s51.833 -68.167 52.5 -121.5z" />
    <glyph glyph-name="t" unicode="t" horiz-adv-x="259" 
d="M245 512l-0.000976562 -34.9961h-110v-347c0 -15.333 0.166992 -25.833 0.5 -31.5s1.5 -13.834 3.5 -24.501s5.33301 -18.167 10 -22.5s11.5 -8.33301 20.5 -12s20.167 -5.5 33.5 -5.5c11.333 0 25.333 1.33301 42 4v-37c-19.333 -2.66699 -35.333 -4 -48 -4
c-20 0 -36.667 2.66699 -50 8s-23.5 11.166 -30.5 17.499s-12.167 16.666 -15.5 30.999s-5.16602 26.166 -5.49902 35.499s-0.5 24.333 -0.5 45v12v331h-95v35h95v161h40v-161h110z" />
    <glyph glyph-name="u" unicode="u" horiz-adv-x="519" 
d="M458 512l0.000976562 -512h-38v108c-36 -82 -97.333 -123 -184 -123c-59.333 0 -104.333 17.667 -135 53s-46 83.333 -46 144v330h40v-321c0 -114 49.667 -171 149 -171c57.333 0 100.666 20.833 129.999 62.5s44 92.167 44 151.5v278h40z" />
    <glyph glyph-name="v" unicode="v" horiz-adv-x="444" 
d="M447 512l-194.001 -512h-47l-208 512h44l147 -360l22 -59.5l19 -52.5c8.66699 25.333 22.334 63.333 41.001 114l134 358h42z" />
    <glyph glyph-name="w" unicode="w" horiz-adv-x="704" 
d="M705 512l-164.997 -511.998h-46l-121 389c-8.66699 27.333 -15.667 52.666 -21 75.999c-10 -38 -17 -63 -21 -75l-122 -390h-48l-165 512h44l119 -374l26 -94c3.33301 10.667 7.66602 26.667 12.999 48s9.66602 37.333 12.999 48l116 372h50l116 -374
c4 -13.333 12.667 -44.333 26 -93c11.333 45.333 19.666 75.666 24.999 90.999l120 376h41z" />
    <glyph glyph-name="x" unicode="x" horiz-adv-x="444" 
d="M432 512l-185 -242l205 -270h-52l-179 240l-180 -240h-48l203 268l-187 244h52l160 -214l163 214h48z" />
    <glyph glyph-name="y" unicode="y" horiz-adv-x="444" 
d="M447 512l-221 -565c-10 -26 -17.5 -44.333 -22.5 -55s-12.833 -23.334 -23.5 -38.001s-23.5 -24.667 -38.5 -30s-33.5 -8 -55.5 -8c-14 0 -27 0.666992 -39 2v36c10.667 -2 21.667 -3 33 -3c24 0 43 5.16699 57 15.5s26 27.5 36 51.5c16 36.667 27.667 64.334 35 83.001
l-217 511h45l169 -401c5.33301 -12.667 13 -34 23 -64c12.667 37.333 20.667 60.333 24 69l152 396h43z" />
    <glyph glyph-name="z" unicode="z" horiz-adv-x="426" 
d="M401 512v-33l-347 -444h362v-35h-407v38l343 439h-318v35h367z" />
    <glyph glyph-name="braceleft" unicode="{" horiz-adv-x="333" 
d="M325 -185c-49.333 0 -89 12.6729 -119 38.0059c-16.667 14 -29.167 32.333 -37.5 55s-13.166 42.167 -14.499 58.5s-2 39.166 -2 68.499v70c0 51.333 -9.33301 87.333 -28 108s-56.667 35 -114 43v26c57.333 8 95.333 22.333 114 43s28 56.667 28 108v70
c0 29.333 0.666992 52.166 2 68.499s6.16602 35.833 14.499 58.5s20.833 41 37.5 55c30 25.333 69.667 38 119 38v-26c-61.333 -2.66699 -102.333 -25.667 -123 -69c-10 -20.667 -15 -57.334 -15 -110.001v-41c0 -26.667 -0.333008 -47 -1 -61s-3.16699 -31.333 -7.5 -52
s-10.666 -36.334 -18.999 -47.001s-20.666 -20.667 -36.999 -30s-36.5 -15.333 -60.5 -18c24 -2.66699 44.167 -8.66699 60.5 -18s28.666 -19.333 36.999 -30s14.666 -26.334 18.999 -47.001s6.83301 -38 7.5 -52s1 -34.333 1 -61v-41c0 -52.667 5 -89.334 15 -110.001
c20.667 -43.333 61.667 -66.333 123 -69v-26z" />
    <glyph glyph-name="bar" unicode="|" horiz-adv-x="222" 
d="M93 -214v1000h36v-1000h-36z" />
    <glyph glyph-name="braceright" unicode="}" horiz-adv-x="333" 
d="M325 256c-57.333 -8 -95.333 -22.3389 -114 -43.0059s-28 -56.667 -28 -108v-70c0 -29.333 -0.666992 -52.166 -2 -68.499s-6.16602 -35.833 -14.499 -58.5s-20.833 -41 -37.5 -55c-30 -25.333 -69.667 -38 -119 -38v26c61.333 2.66699 102.333 25.667 123 69
c10 20.667 15 57.334 15 110.001v41c0 26.667 0.333008 47 1 61s3.16699 31.333 7.5 52s10.666 36.334 18.999 47.001s20.666 20.667 36.999 30s36.5 15.333 60.5 18c-24 2.66699 -44.167 8.66699 -60.5 18s-28.666 19.333 -36.999 30s-14.666 26.334 -18.999 47.001
s-6.83301 38 -7.5 52s-1 34.333 -1 61v41c0 52.667 -5 89.334 -15 110.001c-20.667 43.333 -61.667 66.333 -123 69v26c49.333 0 89 -12.667 119 -38c16.667 -14 29.167 -32.333 37.5 -55s13.166 -42.167 14.499 -58.5s2 -39.166 2 -68.499v-70
c0 -51.333 9.33301 -87.333 28 -108s56.667 -35 114 -43v-26z" />
    <glyph glyph-name="asciitilde" unicode="~" horiz-adv-x="600" 
d="M557 331c-6 -32 -19 -59.166 -39 -81.499s-45.667 -33.5 -77 -33.5c-24.667 0 -72.667 12.333 -144 37l-41.5 14.5c-17.667 6.33301 -30.667 10.833 -39 13.5s-17.833 5.16699 -28.5 7.5s-20.334 3.5 -29.001 3.5c-22 0 -41 -8.16699 -57 -24.5
s-26.667 -35.833 -32 -58.5h-28c6.66699 32.667 19.667 60 39 82s45 33 77 33c10.667 0 22.5 -1.33301 35.5 -4s23.667 -5.16699 32 -7.5s21.833 -6.66602 40.5 -12.999l40 -13.5l36 -12.5c16 -5.66699 28.167 -9.83398 36.5 -12.501s18.333 -5.33398 30 -8.00098
s22.167 -4 31.5 -4c22.667 0 41.834 8 57.501 24s26.5 35.333 32.5 58h27z" />
    <glyph glyph-name="sterling" unicode="&#xa3;" 
d="M509 467l-40 -0.000976562c-2 133.333 -66 200 -192 200c-55.333 0 -100.166 -13.667 -134.499 -41s-51.5 -63.333 -51.5 -108c0 -19.333 3 -37.666 9 -54.999s16.333 -38.5 31 -63.5s23.667 -41.167 27 -48.5h159v-24h-145c16.667 -37.333 25 -72.666 25 -105.999
c0 -26 -5.5 -51 -16.5 -75s-22.5 -43.333 -34.5 -58s-29.667 -33.667 -53 -57c42.667 22 78.667 33 108 33c24 0 52 -6 84 -18c3.33301 -1.33301 11 -4.16602 23 -8.49902s20.833 -7.33301 26.5 -9s13.334 -3.5 23.001 -5.5s18.5 -3 26.5 -3
c22.667 0 46.667 6.16699 72 18.5s47 28.5 65 48.5l22 -30c-46.667 -49.333 -98.667 -74 -156 -74c-8.66699 0 -17.167 0.5 -25.5 1.5s-18 3.16699 -29 6.5s-19 5.66602 -24 6.99902s-14.5 4.66602 -28.5 9.99902s-22 8.33301 -24 9c-24 8.66699 -47.333 13 -70 13
c-36 0 -75 -15 -117 -45l-26 36c33.333 24 60.833 53.167 82.5 87.5s32.5 69.833 32.5 106.5c0 34.667 -9.66699 72 -29 112h-80v24h65c-2 3.33301 -7.83301 13.666 -17.5 30.999s-15.834 29 -18.501 35l-13 29.5c-6 13.667 -10 26.167 -12 37.5s-3 23.333 -3 36
c0 54.667 21 98.834 63 132.501s97 50.5 165 50.5c77.333 0 135.166 -20.333 173.499 -61s57.5 -99 57.5 -175z" />
    <glyph glyph-name="currency" unicode="&#xa4;" 
d="M58 160l62.999 63.001c-32.667 41.333 -49 86 -49 134s16.333 92.667 49 134l-64 64l24 23l63 -64c40.667 32.667 85.334 49 134.001 49c50.667 0 95.334 -16.333 134.001 -49l64 64l23 -24l-63 -63c32.667 -43.333 49 -88 49 -134
c0 -46.667 -16.667 -91.334 -50 -134.001l64 -64l-23 -23l-64 64c-40.667 -33.333 -85.334 -50 -134.001 -50c-50 0 -94.333 16.667 -133 50l-64 -63zM277.999 528.001c-47.333 0 -87.668 -16.667 -121.001 -50s-50 -73.666 -50 -120.999s16.833 -87.666 50.5 -120.999
s73.834 -50 120.501 -50c48 0 88.667 16.667 122 50s50 73.666 50 120.999s-16.667 87.666 -50 120.999s-74 50 -122 50z" />
    <glyph glyph-name="brokenbar" unicode="&#xa6;" horiz-adv-x="222" 
d="M92 -89v250h38v-250h-38zM92 411v250h38v-250h-38z" />
    <glyph glyph-name="section" unicode="&#xa7;" 
d="M447 534l-40.001 -0.00292969c-4 94 -50.667 141 -140 141c-35.333 0 -64.166 -9.33301 -86.499 -28s-33.5 -42.667 -33.5 -72c0 -15.333 2.83301 -29.166 8.5 -41.499s15.834 -24.333 30.501 -36s25.167 -19.5 31.5 -23.5s19.833 -11.667 40.5 -23
c89.333 -49.333 147.666 -85.333 174.999 -108c47.333 -38.667 71 -80.334 71 -125.001c0 -30.667 -10.167 -58.667 -30.5 -84s-48.166 -44 -83.499 -56c40 -34 60 -71.333 60 -112c0 -42 -15.833 -76.167 -47.5 -102.5s-72.834 -39.5 -123.501 -39.5
c-57.333 0 -102 16.333 -134 49s-48 78 -48 136h40c1.33301 -49.333 14 -86.666 38 -111.999s58.667 -38 104 -38c38 0 69 9.83301 93 29.5s36 44.834 36 75.501c0 33.333 -13.667 61 -41 83c-12.667 10 -28.334 21.167 -47.001 33.5s-45.167 28.5 -79.5 48.5l-61.5 36
c-27.333 16.667 -48.5 30.667 -63.5 42s-29.667 28 -44 50s-21.5 45.667 -21.5 71c0 32 9.66699 60.333 29 85s46.333 43.334 81 56.001c-35.333 29.333 -53 64.333 -53 105c0 39.333 15.167 71.833 45.5 97.5s68.833 38.5 115.5 38.5
c56.667 0 100.334 -15.167 131.001 -45.5s46.667 -73.833 48 -130.5zM185.999 448.997c-64.667 -27.333 -97.002 -66.999 -97.002 -118.999c0 -14.667 3 -28.334 9 -41.001s15 -24.334 27 -35.001s22.5 -19.334 31.5 -26.001s21.167 -14.667 36.5 -24
c10.667 -6.66699 28.334 -17.167 53.001 -31.5l64.5 -38.5c18.333 -11.333 35.5 -22.666 51.5 -33.999c68 21.333 102 59 102 113c0 37.333 -20.333 71.333 -61 102c-36.667 28.667 -92.667 63.667 -168 105c-23.333 12.667 -39.666 22.334 -48.999 29.001z" />
    <glyph glyph-name="copyright" unicode="&#xa9;" horiz-adv-x="800" 
d="M400 729c101.333 0 187.666 -35.832 258.999 -107.499s107 -157.834 107 -258.501c0 -101.333 -35.833 -187.666 -107.5 -258.999s-157.834 -107 -258.501 -107c-101.333 0 -187.666 36 -258.999 108s-107 158 -107 258c0 101.333 35.833 187.666 107.5 258.999
s157.834 107 258.501 107zM400 702.001c-94 0 -174.001 -33.167 -240.001 -99.5s-99 -146.166 -99 -239.499c0 -94 33.333 -174 100 -240s146.334 -99 239.001 -99c94 0 174.167 33.167 240.5 99.5s99.5 146.166 99.5 239.499c0 94 -33.333 174 -100 240
s-146.667 99 -240 99zM574.999 283.001c-6 -38.667 -24.667 -70 -56 -94s-67 -36 -107 -36c-58.667 0 -106.167 21 -142.5 63s-54.5 92.333 -54.5 151c0 58 17.5 107.833 52.5 149.5s80.5 62.5 136.5 62.5c42.667 0 80.334 -13.167 113.001 -39.5s51 -59.833 55 -100.5h-32
c-6 34 -21.333 61 -46 81s-54 30 -88 30c-48 0 -85.833 -18 -113.5 -54s-41.5 -78.333 -41.5 -127c0 -51.333 14.667 -95.333 44 -132s68.333 -55 117 -55c32 0 60.167 9.16699 84.5 27.5s40.166 42.833 47.499 73.5h31z" />
    <glyph glyph-name="guillemotleft" unicode="&#xab;" horiz-adv-x="389" 
d="M311 420v-48l-88 -105l88 -100v-48l-117 128v39zM181 418v-47l-86 -104l86 -99v-49l-115 128v41z" />
    <glyph glyph-name="logicalnot" unicode="&#xac;" horiz-adv-x="600" 
d="M55 343v33h489v-216h-34v183h-455z" />
    <glyph glyph-name="registered" unicode="&#xae;" horiz-adv-x="400" 
d="M199 729c50.667 0 93.834 -18.001 129.501 -54.001s53.5 -79 53.5 -129c0 -50.667 -18 -94 -54 -130s-79 -54 -129 -54c-50.667 0 -93.834 18.167 -129.501 54.5s-53.5 79.5 -53.5 129.5c0 50.667 18 93.834 54 129.501s79 53.5 129 53.5zM199 707.999
c-44.667 0 -82.834 -16.001 -114.501 -48.001s-47.5 -70 -47.5 -114c0 -44.667 16 -83 48 -115s70 -48 114 -48c44.667 0 82.834 16 114.501 48s47.5 70.333 47.5 115s-16 82.834 -48 114.501s-70 47.5 -114 47.5zM131 643.998l78 0.00195312c20 0 37 -4.83301 51 -14.5
s21 -23.834 21 -42.501c0 -22 -11.667 -37.333 -35 -46c22 -10.667 33 -31.334 33 -62.001c0 -12.667 2 -22.334 6 -29.001h-25c-3.33301 6.66699 -5 14.334 -5 23.001c0 23.333 -4.33301 38.833 -13 46.5s-25.667 11.5 -51 11.5h-37v-81h-23v194zM154 552l45 0.00195312
c39.333 0 59 12.333 59 37c0 11.333 -4 19.666 -12 24.999s-14.833 8.16602 -20.5 8.49902s-15.167 0.5 -28.5 0.5h-43v-71z" />
    <glyph glyph-name="degree" unicode="&#xb0;" horiz-adv-x="400" 
d="M200 700c39.333 0 72.833 -13.833 100.5 -41.5s41.5 -61.167 41.5 -100.5c0 -38.667 -14 -71.834 -42 -99.501s-61.333 -41.5 -100 -41.5s-71.834 13.833 -99.501 41.5s-41.5 60.834 -41.5 99.501c0 39.333 13.833 72.833 41.5 100.5s60.834 41.5 99.501 41.5zM200 667
c-30 0 -55.499 -10.666 -76.499 -31.999s-31.5 -47 -31.5 -77s10.667 -55.5 32 -76.5s46.666 -31.5 75.999 -31.5c30 0 55.667 10.667 77 32s32 46.666 32 75.999c0 30 -10.667 55.667 -32 77s-47 32 -77 32z" />
    <glyph glyph-name="plusminus" unicode="&#xb1;" horiz-adv-x="600" 
d="M279 76v188h-227v33h227v189h35v-189h227v-33h-227v-188h-35zM52 -4v33h489v-33h-489z" />
    <glyph glyph-name="mu" unicode="&#xb5;" horiz-adv-x="519" 
d="M421 512h40.001v-512h-39v106c-41.333 -81.333 -100 -122 -176 -122c-66 0 -114.667 28 -146 84v-253h-41v697h41v-325c0 -50.667 12 -91.167 36 -121.5s61 -45.5 111 -45.5c51.333 0 93.666 19.667 126.999 59c19.333 23.333 32 47.333 38 72s9 55 9 91v270z" />
    <glyph glyph-name="paragraph" unicode="&#xb6;" horiz-adv-x="600" 
d="M534 681h-56.001v-847h-37v847h-136v-847h-36v435c-63.333 0 -114.166 20.5 -152.499 61.5s-57.5 92.833 -57.5 155.5c0 74.667 22.667 131 68 169s105 57 179 57h228v-31z" />
    <glyph glyph-name="periodcentered" unicode="&#xb7;" horiz-adv-x="278" 
d="M156 355v-102h-50v102h50z" />
    <glyph glyph-name="guillemotright" unicode="&#xbb;" horiz-adv-x="389" 
d="M208 418l115 -129v-39l-115 -131v48l87 103l-87 98v50zM79 418l116 -128v-39l-116 -132v46l88 105l-88 101v47z" />
    <glyph glyph-name="divide" unicode="&#xf7;" horiz-adv-x="600" 
d="M326 368h-50v100h50v-100zM553 253h-505v33h505v-33zM326 71h-50v100h50v-100z" />
    <glyph glyph-name="florin" unicode="&#x192;" 
d="M415 428l-6.99902 -33.001h-120l-73 -382c-4.66699 -23.333 -8.83398 -42.166 -12.501 -56.499s-9.5 -31.5 -17.5 -51.5s-17 -35.5 -27 -46.5s-23.5 -20.667 -40.5 -29s-36.5 -12.5 -58.5 -12.5c-16 0 -32.667 2 -50 6l6 36c15.333 -2.66699 29.666 -4 42.999 -4
c10 0 19.333 1.16699 28 3.5s16.5 6.16602 23.5 11.499s13 10.5 18 15.5s9.66699 12.167 14 21.5l11 23c3 6 5.83301 15 8.5 27s4.66699 20.667 6 26s3.16602 14.5 5.49902 27.5s3.83301 21.167 4.5 24.5l69 360h-110l7 33h109l19 98c5.33301 28 10.833 50.833 16.5 68.5
s14.167 35.334 25.5 53.001s26.333 30.667 45 39s41.667 12.5 69 12.5c20 0 40 -1.66699 60 -5l-7 -36c-25.333 3.33301 -42.666 5 -51.999 5c-36.667 0 -63.167 -11.833 -79.5 -35.5s-28.166 -56.167 -35.499 -97.5l-19 -102h121z" />
    <glyph glyph-name="afii10023" unicode="&#x401;" horiz-adv-x="560" 
d="M538 712v-38h-437v-285h410v-38h-410v-312h441v-39h-484v712h480zM399 887v-103h-43v103h43zM224 887v-103h-42v103h42z" />
    <glyph glyph-name="afii10051" unicode="&#x402;" horiz-adv-x="704" 
d="M260 144l-0.000976562 -144.001h-43v674h-221v38h545v-38h-281v-392c33.333 90.667 97 136 191 136c38 0 71.5 -7 100.5 -21s51.833 -32.5 68.5 -55.5s29.167 -47.833 37.5 -74.5s12.5 -54.334 12.5 -83.001c0 -75.333 -23.333 -142.666 -70 -201.999
s-105.334 -94.333 -176.001 -105v38c60.667 12.667 110.334 44.834 149.001 96.501s58 109.167 58 172.5c0 53.333 -15.667 99.833 -47 139.5s-78.666 59.5 -141.999 59.5c-56 0 -100.333 -21.167 -133 -63.5s-49 -100.833 -49 -175.5z" />
    <glyph glyph-name="afii10052" unicode="&#x403;" horiz-adv-x="500" 
d="M371 909l-132 -140h-36l117 140h51zM504 674h-394v-674h-43v712h437v-38z" />
    <glyph glyph-name="afii10053" unicode="&#x404;" horiz-adv-x="704" 
d="M665 276c-6.66699 -86.667 -38.333 -157 -95 -211s-127.667 -81 -213 -81c-98 0 -176.833 33.833 -236.5 101.5s-89.5 157.167 -89.5 268.5c0 112 30.5 202.5 91.5 271.5s140.833 103.5 239.5 103.5c72 0 136.667 -21.167 194 -63.5s90 -98.166 98 -167.499h-42
c-12.667 59.333 -41.667 106.166 -87 140.499s-100.333 51.5 -165 51.5c-80 0 -145.833 -27.333 -197.5 -82s-80.834 -127 -87.501 -217h375v-38h-376c0.666992 -99.333 27 -179.333 79 -240s120.333 -91 205 -91c75.333 0 136.333 23.667 183 71s74.334 108.333 83.001 183
h41z" />
    <glyph glyph-name="afii10054" unicode="&#x405;" horiz-adv-x="630" 
d="M571 509l-43.0029 -0.00292969c-7.33301 120 -82 180 -224 180c-62.667 0 -111.667 -13.167 -147 -39.5s-53 -62.833 -53 -109.5c0 -20.667 3.66699 -38.667 11 -54s17 -28 29 -38s27.667 -18.833 47 -26.5s39.166 -14 59.499 -19s44.166 -10.5 71.499 -16.5
c14.667 -2.66699 25.667 -5 33 -7l48.5 -11.5c9.66699 -2.33301 24.667 -6.66602 45 -12.999s35.5 -12.166 45.5 -17.499s22.167 -13 36.5 -23s25 -20.5 32 -31.5s13.167 -24.667 18.5 -41s8 -34.166 8 -53.499c0 -63.333 -23.667 -113 -71 -149s-112.666 -54 -195.999 -54
c-87.333 0 -156.166 21 -206.499 63s-75.5 104.667 -75.5 188h41c1.33301 -72 23.166 -125.833 65.499 -161.5s101.5 -53.5 177.5 -53.5c70 0 124.667 14.5 164 43.5s59 69.5 59 121.5c0 15.333 -2.33301 29.333 -7 42s-10.167 23.667 -16.5 33s-15.666 18 -27.999 26
s-23.166 14.333 -32.499 19s-22.5 9.5 -39.5 14.5s-29.833 8.5 -38.5 10.5l-40.5 9l-36.5 8c-74 17.333 -123 31.333 -147 42c-66.667 30 -100 79.667 -100 149c0 58 21.833 103.833 65.5 137.5s103.834 50.5 180.501 50.5c78 0 140.333 -18 187 -54
s72.334 -90.667 77.001 -164z" />
    <glyph glyph-name="afii10055" unicode="&#x406;" horiz-adv-x="170" 
d="M107 712v-712h-43v712h43z" />
    <glyph glyph-name="afii10056" unicode="&#x407;" horiz-adv-x="170" 
d="M105 712v-712h-43v712h43zM194 887v-103h-43v103h43zM19 887v-103h-42v103h42z" />
    <glyph glyph-name="afii10057" unicode="&#x408;" horiz-adv-x="481" 
d="M419 712v-519.001c0 -139.333 -65.667 -209 -197 -209c-70.667 0 -121.5 18 -152.5 54s-46.5 89.333 -46.5 160c0 9.33301 0.333008 18.333 1 27h41v-21c0 -61.333 11.167 -107.166 33.5 -137.499s63.5 -45.5 123.5 -45.5c57.333 0 97.333 15 120 45s34 73.333 34 130
v516h43z" />
    <glyph glyph-name="afii10058" unicode="&#x409;" horiz-adv-x="1000" 
d="M565 712v-317.997h193c71.333 0 126.333 -16.833 165 -50.5s58 -81.834 58 -144.501c0 -40 -6.66699 -74 -20 -102s-31.333 -48.5 -54 -61.5s-44.667 -22.167 -66 -27.5s-43.666 -8 -66.999 -8h-252v675h-282l-15 -449c-0.666992 -28.667 -3.16699 -55.334 -7.5 -80.001
s-11.333 -49.334 -21 -74.001s-23.834 -44.334 -42.501 -59.001s-41 -22 -67 -22c-32 0 -56 3 -72 9v40c15.333 -8 39.333 -12 72 -12c17.333 0 32.5 6.5 45.5 19.5s22.833 30.333 29.5 52s11.667 42.834 15 63.501s5.33301 41.667 6 63l15 486h367zM765 358.003
l-200 0.000976562v-321h206c33.333 0 61.833 5.66699 85.5 17s41 26.166 52 44.499s18.667 35.5 23 51.5s6.5 32 6.5 48c0 43.333 -14 80.833 -42 112.5s-71.667 47.5 -131 47.5z" />
    <glyph glyph-name="afii10059" unicode="&#x40a;" horiz-adv-x="1000" 
d="M774 0l-273.001 0.000976562v358h-395v-358h-43v712h43v-318h395v318h43v-318h214c71.333 0 126.333 -16.833 165 -50.5s58 -81.834 58 -144.501c0 -40 -6.66699 -74 -20 -102s-31.333 -48.5 -54 -61.5s-44.667 -22.167 -66 -27.5s-43.666 -8 -66.999 -8z
M764.999 358.001l-221 0.000976562v-321h227c33.333 0 61.833 5.66699 85.5 17s41 26.166 52 44.499s18.667 35.5 23 51.5s6.5 32 6.5 48c0 43.333 -14 80.833 -42 112.5s-71.667 47.5 -131 47.5z" />
    <glyph glyph-name="afii10060" unicode="&#x40b;" horiz-adv-x="704" 
d="M651 148l0.000976562 -148.003h-43v148c0 84.667 -11.5 146 -34.5 184s-69.5 57 -139.5 57c-12.667 0 -26 -1.16699 -40 -3.5s-26.333 -5.16602 -37 -8.49902s-22.334 -7.66602 -35.001 -12.999s-22.334 -9.66602 -29.001 -12.999l-24.5 -12.5l-16.5 -8.5v-330h-43v674
h-221v38h545v-38h-281v-303c70.667 36.667 131.334 55 182.001 55c37.333 0 69.166 -4.16699 95.499 -12.5s47.5 -19.5 63.5 -33.5s28.333 -33.333 37 -58s14.334 -50.167 17.001 -76.5s4 -58.833 4 -97.5z" />
    <glyph glyph-name="afii10061" unicode="&#x40c;" horiz-adv-x="613" 
d="M611 712l-328 -296l348 -416h-55l-324 387l-148 -135v-252h-43v712h43v-409l450 409h57zM401 909l-132 -140h-36l117 140h51z" />
    <glyph glyph-name="afii10062" unicode="&#x40e;" 
d="M266 148l-277.998 564h48l251 -518l238 518h46l-297 -636c-12.667 -27.333 -29.834 -48.833 -51.501 -64.5s-44.167 -23.5 -67.5 -23.5c-12 0 -25.833 2.16699 -41.5 6.5s-26.834 9.5 -33.501 15.5v45c18.667 -18.667 42 -28 70 -28c18 0 35.333 5.66699 52 17
s28.667 25.333 36 42zM419.002 881c-4 -32.667 -18.6689 -60.8311 -44.002 -84.498s-54.333 -35.5 -87 -35.5c-37.333 0 -68.666 10.667 -93.999 32s-40.333 50.666 -45 87.999h33c14 -58 49 -87 105 -87c24.667 0 46.334 8.16699 65.001 24.5s30 37.166 34 62.499h33z" />
    <glyph glyph-name="afii10145" unicode="&#x40f;" horiz-adv-x="670" 
d="M356 0v-185h-43v185h-250v712h43v-674h456v674h43v-712h-249z" />
    <glyph glyph-name="afii10017" unicode="&#x410;" horiz-adv-x="593" 
d="M322 712l283 -712h-48l-89 230h-343l-91 -230h-47l289 712h46zM454 266l-129.999 330.001c-3.33301 8 -7.83301 20.667 -13.5 38s-9.83398 29.666 -12.501 36.999l-27 -72l-133 -333h316z" />
    <glyph glyph-name="afii10018" unicode="&#x411;" horiz-adv-x="630" 
d="M63 712l488 0.000976562v-38h-445v-278h264c71.333 0 127 -17.333 167 -52s60 -83 60 -145c0 -38 -8 -70.833 -24 -98.5s-36.667 -48.334 -62 -62.001s-50 -23.5 -74 -29.5s-47.667 -9 -71 -9h-303v712zM377 358.001h-271.001v-320h247c70 0 121 15.5 153 46.5
s48 68.833 48 113.5c0 42.667 -14.667 80 -44 112s-73.666 48 -132.999 48z" />
    <glyph glyph-name="afii10019" unicode="&#x412;" horiz-adv-x="630" 
d="M62 712h293c61.333 0 113 -15 155 -45s63 -74 63 -132c0 -41.333 -12.5 -76.833 -37.5 -106.5s-58.167 -48.167 -99.5 -55.5c48 -5.33301 86.833 -23.666 116.5 -54.999s44.5 -71.333 44.5 -120c0 -68.667 -27.667 -121.334 -83 -158.001
c-40.667 -26.667 -99.667 -40 -177 -40h-275v712zM105 675v-288h224c134 0 201 47.667 201 143c0 50.667 -17.5 87.5 -52.5 110.5s-79.833 34.5 -134.5 34.5h-238zM105 351v-313h229c146.667 0 220 53.667 220 161c0 101.333 -71.333 152 -214 152h-235z" />
    <glyph glyph-name="afii10020" unicode="&#x413;" horiz-adv-x="500" 
d="M504 674h-394v-674h-43v712h437v-38z" />
    <glyph glyph-name="afii10021" unicode="&#x414;" horiz-adv-x="670" 
d="M611 -185v184.999h-558v-185h-43v223h63c70.667 130.667 106 355.334 106 674.001h394v-674h81v-223h-43zM530 674.999l-308 -0.000976562c-6 -305.333 -40.333 -517.666 -103 -636.999h411v637z" />
    <glyph glyph-name="afii10022" unicode="&#x415;" horiz-adv-x="560" 
d="M538 712v-38h-437v-285h410v-38h-410v-313h441v-38h-484v712h480z" />
    <glyph glyph-name="afii10024" unicode="&#x416;" horiz-adv-x="980" 
d="M942 0l-303 405l-128 -117v-288h-43v288l-128 117l-303 -405h-53l325 434l-305 278h55l409 -374v374h43v-374l409 374h56l-305 -278l325 -434h-54z" />
    <glyph glyph-name="afii10025" unicode="&#x417;" horiz-adv-x="630" 
d="M589 198c0 -64.667 -26.3311 -116.331 -78.998 -154.998s-115.334 -58 -188.001 -58c-87.333 0 -156.166 21 -206.499 63s-75.5 104.667 -75.5 188h41c1.33301 -72 23.166 -125.833 65.499 -161.5s101.5 -53.5 177.5 -53.5c58.667 0 110.667 16.667 156 50
s68 75.666 68 126.999c0 104 -70.333 155.333 -211 154c-42 0 -66.667 -0.333008 -74 -1v38h74c54 0 99.833 12.667 137.5 38s56.5 64.333 56.5 117c0 48 -18.833 84.5 -56.5 109.5s-85.834 37.5 -144.501 37.5c-142.667 0 -217.667 -60 -225 -180h-43
c4.66699 73.333 31 128 79 164s111 54 189 54c72.667 0 131.5 -15.5 176.5 -46.5s67.5 -77.167 67.5 -138.5c0 -48.667 -14.167 -88.334 -42.5 -119.001s-62.5 -48 -102.5 -52v-2c106.667 -12 160 -69.667 160 -173z" />
    <glyph glyph-name="afii10026" unicode="&#x418;" horiz-adv-x="670" 
d="M564 0v657h-3l-444 -657h-53v712h43v-657h3l443 657h54v-712h-43z" />
    <glyph glyph-name="afii10027" unicode="&#x419;" horiz-adv-x="670" 
d="M479 881c-4 -32.667 -18.6689 -60.8311 -44.002 -84.498s-54.333 -35.5 -87 -35.5c-37.333 0 -68.666 10.667 -93.999 32s-40.333 50.666 -45 87.999h33c14 -58 49 -87 105 -87c24.667 0 46.334 8.16699 65.001 24.5s30 37.166 34 62.499h33zM563.998 0.00292969v657h-3
l-444 -657h-53v712h43v-657h3l443 657h54v-712h-43z" />
    <glyph glyph-name="afii10028" unicode="&#x41a;" horiz-adv-x="613" 
d="M611 712l-328 -296l348 -416h-55l-324 387l-148 -135v-252h-43v712h43v-409l450 409h57z" />
    <glyph glyph-name="afii10029" unicode="&#x41b;" horiz-adv-x="670" 
d="M564 0l0.000976562 674.002h-320l-15 -448c-0.666992 -28.667 -3.16699 -55.334 -7.5 -80.001s-11.333 -49.334 -21 -74.001s-23.834 -44.334 -42.501 -59.001s-41 -22 -67 -22c-32 0 -56 3 -72 9v40c15.333 -8 39.333 -12 72 -12c17.333 0 32.5 6.5 45.5 19.5
s22.833 30.333 29.5 52s11.667 42.834 15 63.501s5.33301 41.667 6 63l15 486h405v-712h-43z" />
    <glyph glyph-name="afii10030" unicode="&#x41c;" horiz-adv-x="809" 
d="M746 712v-712h-42v533c0 46 2 92.333 6 139c-4 -9.33301 -9.33301 -23.5 -16 -42.5s-12 -32.833 -16 -41.5l-251 -588h-42l-252 581c-1.33301 2.66699 -12.333 32.334 -33 89.001c3.33301 -76.667 5 -122.334 5 -137.001v-533h-42v712h60l227 -528l56 -139
c12 34 28.667 75.667 50 125l231 542h59z" />
    <glyph glyph-name="afii10031" unicode="&#x41d;" horiz-adv-x="670" 
d="M607 712v-712h-43v353h-457v-353h-43v712h43v-321h457v321h43z" />
    <glyph glyph-name="afii10032" unicode="&#x41e;" horiz-adv-x="741" 
d="M369 729c100.667 0 182.5 -35 245.5 -105s94.5 -161 94.5 -273c0 -110 -31.333 -198.833 -94 -266.5s-144.667 -101.5 -246 -101.5s-182.833 34.167 -244.5 102.5s-92.5 158.5 -92.5 270.5c0 110.667 31.167 200.5 93.5 269.5s143.5 103.5 243.5 103.5zM369 691
c-60.667 0 -113.667 -15.832 -159 -47.499s-79 -72.334 -101 -122.001s-33 -104.167 -33 -163.5c0 -100.667 27 -182 81 -244s124.667 -93 212 -93c88 0 159.333 30.667 214 92s82 141.333 82 240c0 100 -27.5 181.333 -82.5 244s-126.167 94 -213.5 94z" />
    <glyph glyph-name="afii10033" unicode="&#x41f;" horiz-adv-x="670" 
d="M607 712v-712h-43v674h-457v-674h-43v712h543z" />
    <glyph glyph-name="afii10034" unicode="&#x420;" horiz-adv-x="591" 
d="M66 712h276.999c68.667 0 119.334 -11 152.001 -33c53.333 -36 80 -90.667 80 -164c0 -70 -24.667 -123 -74 -159c-37.333 -27.333 -86 -41 -146 -41h-246v-315h-43v712zM108.999 674l0.000976562 -321.999h221c57.333 0 99.666 8 126.999 24c50 29.333 75 75 75 137
c0 61.333 -21 105.666 -63 132.999c-19.333 12.667 -38.5 20.5 -57.5 23.5s-44.167 4.5 -75.5 4.5h-227z" />
    <glyph glyph-name="afii10035" unicode="&#x421;" horiz-adv-x="704" 
d="M673 276c-6.66699 -86.667 -38.334 -157 -95.001 -211s-127.667 -81 -213 -81c-98 0 -176.833 33.833 -236.5 101.5s-89.5 157.167 -89.5 268.5c0 112 30.5 202.5 91.5 271.5s140.833 103.5 239.5 103.5c72 0 136.667 -21.167 194 -63.5s90 -98.166 98 -167.499h-42
c-12.667 59.333 -41.667 106.166 -87 140.499s-100.333 51.5 -165 51.5c-85.333 0 -154.333 -30.833 -207 -92.5s-79 -142.5 -79 -242.5s26 -180.5 78 -241.5s120.667 -91.5 206 -91.5c75.333 0 136.333 23.667 183 71s74.334 108.333 83.001 183h41z" />
    <glyph glyph-name="afii10036" unicode="&#x422;" horiz-adv-x="519" 
d="M533 712v-38h-252v-674h-43v674h-253v38h548z" />
    <glyph glyph-name="afii10037" unicode="&#x423;" 
d="M266 148l-277.998 564h48l251 -518l238 518h46l-297 -636c-12.667 -27.333 -29.834 -48.833 -51.501 -64.5s-44.167 -23.5 -67.5 -23.5c-12 0 -25.833 2.16699 -41.5 6.5s-26.834 9.5 -33.501 15.5v45c18.667 -18.667 42 -28 70 -28c18 0 35.333 5.66699 52 17
s28.667 25.333 36 42z" />
    <glyph glyph-name="afii10038" unicode="&#x424;" horiz-adv-x="722" 
d="M382 82v-82h-42v82c-87.333 0 -161 24 -221 72s-90 116 -90 204c0 86.667 30 154.834 90 204.501s133.667 74.5 221 74.5v75h42v-75c87.333 0 161 -24.833 221 -74.5s90 -117.834 90 -204.501c0 -88 -30 -156 -90 -204s-133.667 -72 -221 -72zM391 599h-9v-481
c80.667 5.33301 145.334 27.333 194.001 66s73 96.667 73 174c0 74 -25.333 132.667 -76 176s-111.334 65 -182.001 65zM340 599h-9c-70.667 0 -131.334 -21.667 -182.001 -65s-76 -102 -76 -176c0 -77.333 24.333 -135.333 73 -174s113.334 -60.667 194.001 -66v481z" />
    <glyph glyph-name="afii10039" unicode="&#x425;" 
d="M558 712l-254 -346l267 -366h-53l-241 333l-243 -333h-51l268 366l-253 346h52l227 -315l232 315h49z" />
    <glyph glyph-name="afii10040" unicode="&#x426;" horiz-adv-x="685" 
d="M636 -185v185h-573v712h43v-674h456v674h43v-674h74v-223h-43z" />
    <glyph glyph-name="afii10041" unicode="&#x427;" horiz-adv-x="630" 
d="M523 0l0.00195312 352c-19.333 -8 -54.333 -18.167 -105 -30.5s-93.334 -18.5 -128.001 -18.5c-81.333 0 -139.5 16.667 -174.5 50s-52.5 94.666 -52.5 183.999v175h43v-162c0 -73.333 12.667 -126.666 38 -159.999s72.666 -50 141.999 -50
c44.667 0 89.667 5.66699 135 17s79.333 22 102 32v323h42v-712h-42z" />
    <glyph glyph-name="afii10042" unicode="&#x428;" horiz-adv-x="1000" 
d="M63 0v712h43v-674h376v674h43v-674h377v674h42v-712h-881z" />
    <glyph glyph-name="afii10043" unicode="&#x429;" horiz-adv-x="1024" 
d="M975 -185v185h-912v712h43v-674h376v674h43v-674h376v674h43v-674h74v-223h-43z" />
    <glyph glyph-name="afii10044" unicode="&#x42a;" horiz-adv-x="778" 
d="M754 199c0 -40 -6.66797 -74 -20.001 -102s-31.333 -48.5 -54 -61.5s-44.667 -22.167 -66 -27.5s-43.666 -8 -66.999 -8h-303v674h-249v38h292v-316h244c70.667 0 125.5 -17.167 164.5 -51.5s58.5 -82.833 58.5 -145.5zM710.999 198c0 43.333 -14 80.833 -42 112.5
s-71.667 47.5 -131 47.5h-251v-320h257c33.333 0 61.833 5.66699 85.5 17s41 26 52 44s18.667 35 23 51s6.5 32 6.5 48z" />
    <glyph glyph-name="afii10045" unicode="&#x42b;" horiz-adv-x="809" 
d="M702 0v712h43v-712h-43zM366 0h-303.001v712h43v-316h244c70.667 0 125.5 -17.167 164.5 -51.5s58.5 -82.833 58.5 -145.5c0 -40 -6.66699 -74 -20 -102s-31.333 -48.5 -54 -61.5s-44.667 -22.167 -66 -27.5s-43.666 -8 -66.999 -8zM356.999 358h-251v-320h257
c33.333 0 61.833 5.66699 85.5 17s41 26 52 44s18.667 35 23 51s6.5 32 6.5 48c0 43.333 -14 80.833 -42 112.5s-71.667 47.5 -131 47.5z" />
    <glyph glyph-name="afii10046" unicode="&#x42c;" horiz-adv-x="593" 
d="M366 0h-303.001v712h43v-316h244c70.667 0 125.5 -17.167 164.5 -51.5s58.5 -82.833 58.5 -145.5c0 -40 -6.66699 -74 -20 -102s-31.333 -48.5 -54 -61.5s-44.667 -22.167 -66 -27.5s-43.666 -8 -66.999 -8zM356.999 358h-251v-320h257c33.333 0 61.833 5.66699 85.5 17
s41 26 52 44s18.667 35 23 51s6.5 32 6.5 48c0 43.333 -14 80.833 -42 112.5s-71.667 47.5 -131 47.5z" />
    <glyph glyph-name="afii10047" unicode="&#x42d;" horiz-adv-x="704" 
d="M665 354c0 -111.333 -29.832 -200.833 -89.499 -268.5s-138.5 -101.5 -236.5 -101.5c-85.333 0 -156.333 27 -213 81s-88.334 124.333 -95.001 211h41c8.66699 -74.667 36.334 -135.667 83.001 -183s107.667 -71 183 -71c84.667 0 153 30.333 205 91
s78.333 140.667 79 240h-376v38h375c-6.66699 90 -35.834 162.333 -87.501 217s-117.5 82 -197.5 82c-64.667 0 -119.667 -17.167 -165 -51.5s-74.333 -81.166 -87 -140.499h-42c8 69.333 40.667 125.166 98 167.499s122 63.5 194 63.5c98.667 0 178.5 -34.5 239.5 -103.5
s91.5 -159.5 91.5 -271.5z" />
    <glyph glyph-name="afii10048" unicode="&#x42e;" horiz-adv-x="980" 
d="M608 729c100.667 0 182.502 -35 245.502 -105s94.5 -161 94.5 -273c0 -110 -31.333 -198.833 -94 -266.5s-144.667 -101.5 -246 -101.5c-100.667 0 -181.834 34 -243.501 102s-92.834 157.333 -93.501 268h-164v-353h-43v712h43v-321h165
c7.33301 101.333 41.5 183 102.5 245s138.833 93 233.5 93zM608.002 691c-60.667 0 -113.667 -15.832 -159 -47.499s-79 -72.334 -101 -122.001s-33 -104.167 -33 -163.5c0 -100.667 27 -182 81 -244s124.667 -93 212 -93c88 0 159.333 30.667 214 92s82 141.333 82 240
c0 100 -27.5 181.333 -82.5 244s-126.167 94 -213.5 94z" />
    <glyph glyph-name="afii10049" unicode="&#x42f;" horiz-adv-x="630" 
d="M527 0l-0.000976562 326.999h-259l-236 -327h-51l242 333c-50.667 8 -92.5 28.333 -125.5 61s-49.5 75.667 -49.5 129c0 58.667 20.333 104.834 61 138.501s95.334 50.5 164.001 50.5h297v-712h-43zM526.999 674.999l-254 0.000976562c-52 0 -95.333 -12.5 -130 -37.5
s-52 -62.167 -52 -111.5c0 -54.667 18.667 -95.334 56 -122.001s87 -40 149 -40h231v311z" />
    <glyph glyph-name="afii10065" unicode="&#x430;" horiz-adv-x="500" 
d="M499 36l-0.00195312 -31.999c-11.333 -4 -25 -6 -41 -6c-22.667 0 -38.167 6.16699 -46.5 18.5s-12.5 34.833 -12.5 67.5v25c-22 -42.667 -48.667 -73.834 -80 -93.501s-71.333 -29.5 -120 -29.5c-53.333 0 -94.833 12.667 -124.5 38s-44.5 60.333 -44.5 105
c0 94 65.333 146.333 196 157c68.667 5.33301 111.334 9.83301 128.001 13.5s28.334 10.834 35.001 21.501c4.66699 7.33301 7 25 7 53c0 38.667 -12.333 68 -37 88s-60.667 30 -108 30c-95.333 0 -147 -45.667 -155 -137h-38c3.33301 55.333 22 97.666 56 126.999
s81 44 141 44c68.667 0 119.334 -18.333 152.001 -55c9.33301 -10.667 16.333 -23.5 21 -38.5s7.16699 -27.167 7.5 -36.5s0.5 -24 0.5 -44v-265c0 -10 0.166992 -17.333 0.5 -22s1.66602 -10 3.99902 -16s6.16602 -10.333 11.499 -13s12.333 -4 21 -4
c6.66699 0 15.334 1.33301 26.001 4zM396.998 290.001c-10 -8.66699 -21.665 -15 -34.998 -19c-20.667 -6.66699 -57.334 -12.667 -110.001 -18s-92.334 -14 -119.001 -26c-40 -18 -60 -49.333 -60 -94c0 -34.667 12 -62 36 -82s56.333 -30 97 -30
c54.667 0 100.167 17 136.5 51s54.5 76.667 54.5 128v90z" />
    <glyph glyph-name="afii10066" unicode="&#x431;" horiz-adv-x="537" 
d="M504 247c0 -74.667 -20.6689 -137.334 -62.002 -188.001s-97.666 -76 -168.999 -76c-54 0 -98.667 13.667 -134 41s-60.333 62.333 -75 105c-14.667 42 -22 95.333 -22 160c0 32.667 1.33301 64.334 4 95.001s8.66699 64 18 100s21.333 67.5 36 94.5s35 50.333 61 70
s56.333 31.5 91 35.5l98 11c17.333 2 30 3.66699 38 5s16.5 4.33301 25.5 9s14.167 11.334 15.5 20.001h38c-3.33301 -20.667 -14.333 -36.334 -33 -47.001s-47.667 -18.334 -87 -23.001l-89 -10c-30.667 -3.33301 -57.667 -14 -81 -32s-41.833 -40.667 -55.5 -68
s-24.167 -55.166 -31.5 -83.499s-11.666 -57.5 -12.999 -87.5h3c18.667 40 45.5 71.833 80.5 95.5s75.833 35.5 122.5 35.5c66 0 119.333 -25.167 160 -75.5s61 -112.5 61 -186.5zM465.998 247c0 64 -17.167 118.167 -51.5 162.5s-81.5 66.5 -141.5 66.5
s-107.167 -22.167 -141.5 -66.5s-51.5 -98.5 -51.5 -162.5c0 -64.667 17.167 -119.334 51.5 -164.001s81.5 -67 141.5 -67s107.167 22.333 141.5 67s51.5 99.334 51.5 164.001z" />
    <glyph glyph-name="afii10067" unicode="&#x432;" horiz-adv-x="500" 
d="M272 0l-219 -0.000976562v512h219c50.667 0 93 -10 127 -30s51 -52 51 -96c0 -30 -9.83301 -55.167 -29.5 -75.5s-46.167 -32.833 -79.5 -37.5v-1c37.333 -3.33301 67 -16.166 89 -38.499s33 -50.166 33 -83.499c0 -48.667 -18.167 -85.834 -54.5 -111.501
s-81.833 -38.5 -136.5 -38.5zM266 476.999l-170.999 -0.00195312v-189h150c18 0 35.5 1.33301 52.5 4s34.5 7.33398 52.5 14.001s32.5 16.834 43.5 30.501s16.5 30.167 16.5 49.5c0 30.667 -14.333 53.5 -43 68.5s-62.334 22.5 -101.001 22.5zM245.001 252.997h-150v-218
h171c46 0 83.5 10.167 112.5 30.5s43.5 48.5 43.5 84.5c0 68.667 -59 103 -177 103z" />
    <glyph glyph-name="afii10068" unicode="&#x433;" horiz-adv-x="400" 
d="M100 477v-477h-40v512h340v-35h-300z" />
    <glyph glyph-name="afii10069" unicode="&#x434;" horiz-adv-x="537" 
d="M485 -161v161h-438v-161h-40v196h60c24 49.333 42 114 54 194s18 159.667 18 239v44h316v-477h70v-196h-40zM415 477h-236v-39c0 -70 -6.16699 -143.667 -18.5 -221s-29.5 -138 -51.5 -182h306v442z" />
    <glyph glyph-name="afii10070" unicode="&#x435;" horiz-adv-x="519" 
d="M485 174c-9.33301 -57.333 -33.332 -103.498 -71.999 -138.498s-87.667 -52.5 -147 -52.5c-70.667 0 -127.167 24.333 -169.5 73s-63.5 113.667 -63.5 195s21.5 147.5 64.5 198.5s99.167 76.5 168.5 76.5c72 0 127.333 -25.333 166 -76s58 -113.334 58 -188.001v-14h-415
c0 -64.667 16.167 -119.334 48.5 -164.001s80.166 -67 143.499 -67c46.667 0 85.5 13.667 116.5 41s51.5 66 61.5 116h40zM449.001 283.002c0 56.667 -15.832 105.334 -47.499 146.001s-76.834 61 -135.501 61s-103.667 -19.333 -135 -58s-50 -88.334 -56 -149.001h374z" />
    <glyph glyph-name="afii10072" unicode="&#x436;" horiz-adv-x="722" 
d="M251 270l-210 -270h-52l234 299l-210 213h55l273 -282v282h40v-282l273 282h55l-210 -213l234 -299h-52l-210 270l-90 -92v-178h-40v178z" />
    <glyph glyph-name="afii10073" unicode="&#x437;" horiz-adv-x="473" 
d="M424 392c0 -30.667 -10.001 -56.835 -30.001 -78.502s-46 -34.5 -78 -38.5v-1c36.667 -3.33301 66 -17.166 88 -41.499s33 -53.833 33 -88.5c0 -49.333 -19.5 -88.166 -58.5 -116.499s-85.833 -42.5 -140.5 -42.5c-64.667 0 -115.667 16.5 -153 49.5
s-56 79.167 -56 138.5h40c0 -101.333 56.333 -152 169 -152c41.333 0 78 11.5 110 34.5s48 52.5 48 88.5c0 36.667 -14.667 64 -44 82s-69.666 27 -120.999 27h-46v35h36c45.333 0 84 8.16699 116 24.5s48 42.833 48 79.5c0 32 -13.5 56.5 -40.5 73.5
s-60.5 25.5 -100.5 25.5c-100 0 -153.667 -42.667 -161 -128h-41c0.666992 52.667 19.667 93 57 121s86 42 146 42c52 0 94.833 -11.167 128.5 -33.5s50.5 -55.833 50.5 -100.5z" />
    <glyph glyph-name="afii10074" unicode="&#x438;" horiz-adv-x="519" 
d="M423 0v460h-1l-317 -460h-49v512h40v-462h1l316 462h50v-512h-40z" />
    <glyph glyph-name="afii10075" unicode="&#x439;" horiz-adv-x="519" 
d="M394 712c-4 -32.667 -18.667 -60.833 -44 -84.5s-54.333 -35.5 -87 -35.5c-37.333 0 -68.833 10.833 -94.5 32.5s-40.834 50.834 -45.501 87.501h33c14.667 -58 50 -87 106 -87c24.667 0 46.334 8.16699 65.001 24.5s30 37.166 34 62.499h33zM423 0.000976562v460h-1
l-317 -460h-49v512h40v-462h1l316 462h50v-512h-40z" />
    <glyph glyph-name="afii10076" unicode="&#x43a;" horiz-adv-x="463" 
d="M478 0h-51l-218 276l-112 -105v-171h-40v512h40v-294l311 294h55l-225 -210z" />
    <glyph glyph-name="afii10077" unicode="&#x43b;" horiz-adv-x="537" 
d="M442 0l0.000976562 477h-239l-10 -274c-4.66699 -142 -44.334 -213 -119.001 -213c-20.667 0 -39.667 3.33301 -57 10v36c16 -7.33301 34.667 -11 56 -11c50 0 77.333 60.667 82 182l11 305h316v-512h-40z" />
    <glyph glyph-name="afii10078" unicode="&#x43c;" horiz-adv-x="630" 
d="M96 476v-476h-40v512h64l196 -465l195 465h64v-512h-40v476h-2l-196 -476h-42l-197 476h-2z" />
    <glyph glyph-name="afii10079" unicode="&#x43d;" horiz-adv-x="519" 
d="M423 0v255h-327v-255h-40v512h40v-223h327v223h40v-512h-40z" />
    <glyph glyph-name="afii10080" unicode="&#x43e;" horiz-adv-x="537" 
d="M270 527c71.333 0 128.5 -24.833 171.5 -74.5s64.5 -116.167 64.5 -199.5c0 -82 -21.5 -147.167 -64.5 -195.5s-100.5 -72.5 -172.5 -72.5c-72.667 0 -130.5 24.5 -173.5 73.5s-64.5 114.833 -64.5 197.5c0 81.333 21.833 146.833 65.5 196.5s101.5 74.5 173.5 74.5z
M269 492c-58.667 0 -106.169 -21.667 -142.502 -65s-54.5 -100.333 -54.5 -171c0 -72 17.833 -129.333 53.5 -172s83.834 -64 144.501 -64c58.667 0 105.667 21.167 141 63.5s53 98.833 53 169.5c0 72.667 -17.667 130.667 -53 174s-82.666 65 -141.999 65z" />
    <glyph glyph-name="afii10081" unicode="&#x43f;" horiz-adv-x="519" 
d="M423 479h-327v-479h-40v512h407v-512h-40v479z" />
    <glyph glyph-name="afii10082" unicode="&#x440;" 
d="M100 512v-121.999c33.333 90.667 97 136 191 136c69.333 0 124.833 -24.833 166.5 -74.5s62.5 -115.834 62.5 -198.501c0 -81.333 -20.833 -146.833 -62.5 -196.5s-96.834 -74.5 -165.501 -74.5c-47.333 0 -87.666 11.667 -120.999 35s-56.333 56.333 -69 99v-301h-40
v697h38zM289 492.001c-59.333 0 -105.668 -21.168 -139.001 -63.501s-50 -101.166 -50 -176.499c0 -42 6.16699 -80.167 18.5 -114.5s33.333 -63.166 63 -86.499s65.834 -35 108.501 -35c56.667 0 102.167 21.667 136.5 65s51.5 100.666 51.5 171.999
c0 73.333 -17 131.5 -51 174.5s-80 64.5 -138 64.5z" />
    <glyph glyph-name="afii10083" unicode="&#x441;" horiz-adv-x="519" 
d="M489 180c-8 -61.333 -31.1699 -109.167 -69.5029 -143.5s-87.833 -51.5 -148.5 -51.5c-74.667 0 -132.5 25.5 -173.5 76.5s-61.5 115.167 -61.5 192.5c0 83.333 21.833 149.666 65.5 198.999s101.834 74 174.501 74c59.333 0 107.333 -15.167 144 -45.5
s58.334 -72.5 65.001 -126.5h-41c-5.33301 42 -23 75.5 -53 100.5s-68 37.5 -114 37.5c-60.667 0 -109.167 -21.5 -145.5 -64.5s-54.5 -100.5 -54.5 -172.5c0 -71.333 17.667 -128.666 53 -171.999s82 -65 140 -65c49.333 0 89.833 14.333 121.5 43s50.834 68 57.501 118h40
z" />
    <glyph glyph-name="afii10084" unicode="&#x442;" horiz-adv-x="444" 
d="M242 477v-477h-40v477h-194v35h428v-35h-194z" />
    <glyph glyph-name="afii10085" unicode="&#x443;" horiz-adv-x="444" 
d="M447 512l-221 -565c-10 -26 -17.5 -44.333 -22.5 -55s-12.833 -23.334 -23.5 -38.001s-23.5 -24.667 -38.5 -30s-33.5 -8 -55.5 -8c-14 0 -27 0.666992 -39 2v36c10.667 -2 21.667 -3 33 -3c24 0 43 5.16699 57 15.5s26 27.5 36 51.5c16 36.667 27.667 64.334 35 83.001
l-217 511h45l169 -401c5.33301 -12.667 13 -34 23 -64c12.667 37.333 20.667 60.333 24 69l152 396h43z" />
    <glyph glyph-name="afii10086" unicode="&#x444;" horiz-adv-x="766" 
d="M730 257c0 -76.667 -17.167 -140.667 -51.5 -192s-82.833 -77 -145.5 -77c-54.667 0 -98 25 -130 75v-248h-40v248c-32 -50 -75.333 -75 -130 -75c-62.667 0 -111.167 25.667 -145.5 77s-51.5 115.333 -51.5 192c0 77.333 16.667 141.5 50 192.5s81.333 76.5 144 76.5
c27.333 0 52.833 -7.5 76.5 -22.5s42.5 -33.5 56.5 -55.5v264h40v-264c14 22 32.833 40.5 56.5 55.5s49.167 22.5 76.5 22.5c62.667 0 110.667 -25.5 144 -76.5s50 -115.167 50 -192.5zM688 257c0 68 -12.999 124.168 -38.999 168.501s-67 66.5 -123 66.5
c-30.667 0 -58.834 -13.333 -84.501 -40s-38.5 -57.667 -38.5 -93v-207c0 -34.667 13 -64.834 39 -90.501s54.333 -38.5 85 -38.5c52 0 91.833 22.5 119.5 67.5s41.5 100.5 41.5 166.5zM363.001 152.001l0.000976562 206.999c0 35.333 -12.833 66.333 -38.5 93
s-53.834 40 -84.501 40c-56 0 -97 -22.167 -123 -66.5s-39 -100.5 -39 -168.5c0 -66 13.833 -121.5 41.5 -166.5s67.5 -67.5 119.5 -67.5c30.667 0 59 12.833 85 38.5s39 55.834 39 90.501z" />
    <glyph glyph-name="afii10087" unicode="&#x445;" horiz-adv-x="444" 
d="M432 512l-185 -242l205 -270h-52l-179 240l-180 -240h-48l203 268l-187 244h52l160 -214l163 214h48z" />
    <glyph glyph-name="afii10088" unicode="&#x446;" horiz-adv-x="537" 
d="M487 -161v161h-432v512h40v-477h327v477h40v-477h65v-196h-40z" />
    <glyph glyph-name="afii10089" unicode="&#x447;" horiz-adv-x="489" 
d="M392 0l0.000976562 248.999c-18 -7.33301 -44.833 -15.666 -80.5 -24.999s-66.834 -14 -93.501 -14c-57.333 0 -99 13 -125 39s-39 69 -39 129v134h40v-141c0 -46.667 10.5 -79.167 31.5 -97.5s52.167 -27.5 93.5 -27.5c26.667 0 57.667 4.83301 93 14.5s62 18.5 80 26.5
v225h40v-512h-40z" />
    <glyph glyph-name="afii10090" unicode="&#x448;" horiz-adv-x="768" 
d="M55 0v512h40v-477h267v477h40v-477h267v477h40v-512h-654z" />
    <glyph glyph-name="afii10091" unicode="&#x449;" horiz-adv-x="789" 
d="M734 -161v161h-680v512h40v-477h268v477h40v-477h267v477h40v-477h65v-196h-40z" />
    <glyph glyph-name="afii10092" unicode="&#x44a;" horiz-adv-x="611" 
d="M583 160c0 -51.333 -16 -90.833 -48 -118.5s-74.667 -41.5 -128 -41.5h-230v477h-178v35h219v-204h173c128 0 192 -49.333 192 -148zM541 160c0 40 -15.333 68.833 -46 86.5s-68.667 26.5 -114 26.5h-163v-238h183c43.333 0 77.5 11.333 102.5 34s37.5 53 37.5 91z" />
    <glyph glyph-name="afii10093" unicode="&#x44b;" horiz-adv-x="630" 
d="M535 0v512h40v-512h-40zM265 0h-211v512h41v-204h153c128.667 0 193 -49.333 193 -148c0 -51.333 -16 -90.833 -48 -118.5s-74.667 -41.5 -128 -41.5zM238 273h-143v-238h164c43.333 0 77.5 11.333 102.5 34s37.5 53 37.5 91c0 40 -15.333 68.833 -46 86.5
s-69 26.5 -115 26.5z" />
    <glyph glyph-name="afii10094" unicode="&#x44c;" horiz-adv-x="489" 
d="M285 0h-231v512h41v-204h173c128.667 0 193 -49.333 193 -148c0 -51.333 -16 -90.833 -48 -118.5s-74.667 -41.5 -128 -41.5zM258 273h-163v-238h184c43.333 0 77.5 11.333 102.5 34s37.5 53 37.5 91c0 40 -15.333 68.833 -46 86.5s-69 26.5 -115 26.5z" />
    <glyph glyph-name="afii10095" unicode="&#x44d;" horiz-adv-x="519" 
d="M483 254c0 -77.333 -20.5029 -141.501 -61.5029 -192.501s-98.833 -76.5 -173.5 -76.5c-59.333 0 -108 16.333 -146 49s-61.667 78.334 -71 137.001h40c8 -47.333 27.833 -84.5 59.5 -111.5s71.167 -40.5 118.5 -40.5c57.333 0 103.5 21.167 138.5 63.5
s53.167 98.833 54.5 169.5h-275v34h274c-5.33301 63.333 -25.666 113.666 -60.999 150.999s-81.333 56 -138 56c-44.667 0 -81.667 -11.667 -111 -35s-47.666 -55 -54.999 -95h-41c8 51.333 30.333 91.5 67 120.5s83.667 43.5 141 43.5
c72.667 0 130.834 -24.667 174.501 -74s65.5 -115.666 65.5 -198.999z" />
    <glyph glyph-name="afii10096" unicode="&#x44e;" horiz-adv-x="730" 
d="M462 527c71.333 0 128.502 -24.834 171.502 -74.501s64.5 -116.167 64.5 -199.5c0 -82 -21.5 -147.167 -64.5 -195.5s-100.5 -72.5 -172.5 -72.5c-72.667 0 -130.334 24.333 -173.001 73s-64.334 114.334 -65.001 197.001h-127v-255h-40v512h40v-223h128
c6 72.667 30.5 130.5 73.5 173.5s97.833 64.5 164.5 64.5zM461.002 491.999c-58.667 0 -106.169 -21.667 -142.502 -65s-54.5 -100.333 -54.5 -171c0 -72 17.833 -129.333 53.5 -172s83.834 -64 144.501 -64c58.667 0 105.667 21.167 141 63.5s53 98.833 53 169.5
c0 72.667 -17.667 130.667 -53 174s-82.666 65 -141.999 65z" />
    <glyph glyph-name="afii10097" unicode="&#x44f;" horiz-adv-x="500" 
d="M401 0l-0.00195312 216.001h-151c-15.333 0 -26.666 0.333008 -33.999 1l-169 -217h-52l174 223c-41.333 8.66699 -72.166 26.667 -92.499 54s-30.5 57.666 -30.5 90.999c0 50 16.833 86.5 50.5 109.5s78.167 34.5 133.5 34.5h211v-512h-40zM400.998 477.001
l-165.001 0.000976562c-46 0 -82.333 -9.16699 -109 -27.5s-40 -45.5 -40 -81.5c0 -40.667 14.333 -70.334 43 -89.001s65.334 -28 110.001 -28h161v226z" />
    <glyph glyph-name="afii10071" unicode="&#x451;" horiz-adv-x="519" 
d="M485 174c-9.33301 -57.333 -33.332 -103.498 -71.999 -138.498s-87.667 -52.5 -147 -52.5c-70.667 0 -127.167 24.333 -169.5 73s-63.5 113.667 -63.5 195s21.5 147.5 64.5 198.5s99.167 76.5 168.5 76.5c72 0 127.333 -25.333 166 -76s58 -113.334 58 -188.001v-14h-415
c0 -64.667 16.167 -119.334 48.5 -164.001s80.166 -67 143.499 -67c46.667 0 85.5 13.667 116.5 41s51.5 66 61.5 116h40zM449.001 283.002c0 56.667 -15.832 105.334 -47.499 146.001s-76.834 61 -135.501 61s-103.667 -19.333 -135 -58s-50 -88.334 -56 -149.001h374z
M368.002 714.002v-103h-43v103h43zM193.002 714.002v-103h-42v103h42z" />
    <glyph glyph-name="afii10099" unicode="&#x452;" horiz-adv-x="519" 
d="M475 108c0 -72 -22.998 -136.499 -68.998 -193.499s-105.333 -89.833 -178 -98.5v33c61.333 10 111.166 38.5 149.499 85.5s57.5 99.833 57.5 158.5v92c0 112 -48.667 168 -146 168c-56.667 0 -101.834 -19.833 -135.501 -59.5s-50.5 -91.5 -50.5 -155.5v-138h-40v477
h-63v35h63v200h39v-200h263v-35h-263v-213h2c12.667 37.333 36.5 67 71.5 89s73.167 33 114.5 33c28.667 0 54 -3.5 76 -10.5s39.5 -17 52.5 -30s23.667 -26 32 -39s14 -28.667 17 -47s5 -32.833 6 -43.5s1.5 -23.334 1.5 -38.001v-70z" />
    <glyph glyph-name="afii10100" unicode="&#x453;" horiz-adv-x="400" 
d="M308 736l-132 -140h-36l117 140h51zM97 477v-477h-40v512h340v-35h-300z" />
    <glyph glyph-name="afii10101" unicode="&#x454;" horiz-adv-x="519" 
d="M489 171c-9.33301 -58.667 -33.0029 -104.333 -71.0029 -137s-86.667 -49 -146 -49c-74.667 0 -132.5 25.5 -173.5 76.5s-61.5 115.167 -61.5 192.5c0 83.333 21.833 149.666 65.5 198.999s101.834 74 174.501 74c57.333 0 104.333 -14.5 141 -43.5s59 -69.167 67 -120.5
h-41c-7.33301 40 -25.666 71.667 -54.999 95s-66.333 35 -111 35c-56.667 0 -102.667 -18.667 -138 -56s-55.666 -87.666 -60.999 -150.999h274v-34h-275c1.33301 -70.667 19.5 -127.167 54.5 -169.5s81.167 -63.5 138.5 -63.5c47.333 0 86.833 13.5 118.5 40.5
s51.5 64.167 59.5 111.5h40z" />
    <glyph glyph-name="afii10102" unicode="&#x455;" horiz-adv-x="481" 
d="M429 363l-40.9941 0.00195312c-4 45.333 -19.167 78 -45.5 98s-63.833 30 -112.5 30c-42.667 0 -76.5 -9 -101.5 -27s-37.5 -42.333 -37.5 -73c0 -8 0.833008 -15.333 2.5 -22s3.66699 -12.5 6 -17.5s6.16602 -10 11.499 -15l13 -12
c3.33301 -3 9.16602 -6.33301 17.499 -10l18.5 -8c4 -1.66699 11.333 -3.83398 22 -6.50098s18.167 -4.66699 22.5 -6s12.666 -3.33301 24.999 -6s20.5 -4.33398 24.5 -5.00098c24.667 -5.33301 42.334 -9.5 53.001 -12.5s26.667 -8.66699 48 -17s37.166 -17 47.499 -26
s19.833 -21.5 28.5 -37.5s13 -34.333 13 -55c0 -45.333 -18.5 -81.833 -55.5 -109.5s-85.833 -41.5 -146.5 -41.5c-64.667 0 -115.667 16.5 -153 49.5s-56 79.167 -56 138.5h40c0 -50.667 14.833 -88.667 44.5 -114s71.834 -38 126.501 -38c47.333 0 85.833 10.333 115.5 31
s44.5 48 44.5 82c0 14.667 -3.5 27.834 -10.5 39.501s-14.5 21 -22.5 28s-20.167 13.667 -36.5 20s-28.666 10.5 -36.999 12.5s-21.5 5 -39.5 9l-4.5 1.5c-1 0.333008 -2.33301 0.666016 -4 0.999023s-3.16699 0.5 -4.5 0.5c-4.66699 1.33301 -13.834 3.5 -27.501 6.5
s-23.834 5.16699 -30.501 6.5s-16.334 3.83301 -29.001 7.5s-22.334 7.16699 -29.001 10.5l-25 12.5c-10 5 -17.667 10.667 -23 17s-10.833 13.5 -16.5 21.5s-9.66699 17 -12 27s-3.5 21 -3.5 33c0 43.333 16.5 77.333 49.5 102s78.833 37 137.5 37
c59.333 0 106.166 -13.833 140.499 -41.5s51.833 -68.167 52.5 -121.5z" />
    <glyph glyph-name="afii10103" unicode="&#x456;" horiz-adv-x="168" 
d="M104 712v-101h-40v101h40zM104 512v-512h-40v512h40z" />
    <glyph glyph-name="afii10104" unicode="&#x457;" horiz-adv-x="168" 
d="M193 714v-103h-43v103h43zM18 714v-103h-42v103h42zM104 512v-512h-41v512h41z" />
    <glyph glyph-name="afii10105" unicode="&#x458;" horiz-adv-x="168" 
d="M105 512l-0.000976562 -566c0 -48 -8 -82.167 -24 -102.5s-47 -30.5 -93 -30.5c-2.66699 0 -10.667 0.666992 -24 2v34h20c32.667 0 54.334 6.83301 65.001 20.5s16 38.167 16 73.5v569h40zM104.999 712v-100h-40v100h40z" />
    <glyph glyph-name="afii10106" unicode="&#x459;" horiz-adv-x="778" 
d="M749 157c0 -50.667 -15.999 -89.5 -47.999 -116.5s-74.667 -40.5 -128 -40.5h-175v477h-195l-10 -274c-4.66699 -142 -44.334 -213 -119.001 -213c-20.667 0 -39.667 3.33301 -57 10v36c16 -7.33301 34.667 -11 56 -11c50 0 77.333 60.667 82 182l11 305h272v-210h118
c128.667 0 193 -48.333 193 -145zM707.001 157c0 73.333 -53.667 110 -161 110h-108v-232h129c44 0 78.333 10.833 103 32.5s37 51.5 37 89.5z" />
    <glyph glyph-name="afii10107" unicode="&#x45a;" horiz-adv-x="778" 
d="M573 0h-196v267h-282v-267h-40v512h40v-210h282v210h40v-210h139c128.667 0 193 -48.333 193 -145c0 -50.667 -16 -89.5 -48 -116.5s-74.667 -40.5 -128 -40.5zM546 267h-129v-232h150c44 0 78.333 10.833 103 32.5s37 51.5 37 89.5c0 73.333 -53.667 110 -161 110z" />
    <glyph glyph-name="afii10108" unicode="&#x45b;" horiz-adv-x="519" 
d="M472 0h-39.999v185c0 112 -47.667 168 -143 168c-56.667 0 -101.834 -19.5 -135.501 -58.5s-50.5 -91.167 -50.5 -156.5v-138h-40v477h-63v35h63v200h39v-200h263v-35h-263v-213h2c34 81.333 97 122 189 122c119.333 0 179 -69.333 179 -208v-178z" />
    <glyph glyph-name="afii10109" unicode="&#x45c;" horiz-adv-x="463" 
d="M338 736l-132 -140h-36l117 140h51zM478 0h-51l-218 276l-112 -105v-171h-40v512h40v-294l311 294h55l-225 -210z" />
    <glyph glyph-name="afii10110" unicode="&#x45e;" horiz-adv-x="444" 
d="M358 712c-4 -32.667 -18.667 -60.833 -44 -84.5s-54.333 -35.5 -87 -35.5c-37.333 0 -68.833 10.833 -94.5 32.5s-40.834 50.834 -45.501 87.501h33c14.667 -58 50 -87 106 -87c24.667 0 46.334 8.16699 65.001 24.5s30 37.166 34 62.499h33zM447 512.001l-221 -565
c-10 -26 -17.5 -44.333 -22.5 -55s-12.833 -23.334 -23.5 -38.001s-23.5 -24.667 -38.5 -30s-33.5 -8 -55.5 -8c-14 0 -27 0.666992 -39 2v36c10.667 -2 21.667 -3 33 -3c24 0 43 5.16699 57 15.5s26 27.5 36 51.5c16 36.667 27.667 64.334 35 83.001l-217 511h45l169 -401
c5.33301 -12.667 13 -34 23 -64c12.667 37.333 20.667 60.333 24 69l152 396h43z" />
    <glyph glyph-name="afii10193" unicode="&#x45f;" horiz-adv-x="519" 
d="M280 0v-161h-40v161h-184v512h40v-478h327v478h40v-512h-183z" />
    <glyph glyph-name="afii10050" unicode="&#x490;" horiz-adv-x="500" 
d="M106 674v-674h-43v712h394v170h43v-208h-394z" />
    <glyph glyph-name="afii10098" unicode="&#x491;" horiz-adv-x="400" 
d="M397 673v-196h-300v-477h-40v512h300v161h40z" />
    <glyph glyph-name="endash" unicode="&#x2013;" horiz-adv-x="500" 
d="M500 291v-38h-500v38h500z" />
    <glyph glyph-name="emdash" unicode="&#x2014;" horiz-adv-x="1000" 
d="M1000 291v-38h-1000v38h1000z" />
    <glyph glyph-name="quoteleft" unicode="&#x2018;" horiz-adv-x="204" 
d="M141 692c-22 -14 -33.333 -45.333 -34 -94h20v-102h-50v85c0 36 4.16699 66.333 12.5 91s25.5 42.667 51.5 54v-34z" />
    <glyph glyph-name="quoteright" unicode="&#x2019;" horiz-adv-x="204" 
d="M127 712v-85c0 -36 -4.16699 -66.333 -12.5 -91s-25.5 -42.667 -51.5 -54v34c22 14 33.333 45.333 34 94h-20v102h50z" />
    <glyph glyph-name="quotesinglbase" unicode="&#x201a;" horiz-adv-x="204" 
d="M125 102v-85c0 -36 -4.16699 -66.333 -12.5 -91s-25.5 -42.667 -51.5 -54v34c22 14 33.333 45.333 34 94h-20v102h50z" />
    <glyph glyph-name="quotedblleft" unicode="&#x201c;" horiz-adv-x="315" 
d="M259 692c-22 -14 -33.333 -45.333 -34 -94h20v-102h-50v85c0 36 4.16699 66.333 12.5 91s25.5 42.667 51.5 54v-34zM134 692c-22 -14 -33.333 -45.333 -34 -94h20v-102h-50v85c0 36 4.16699 66.333 12.5 91s25.5 42.667 51.5 54v-34z" />
    <glyph glyph-name="quotedblright" unicode="&#x201d;" horiz-adv-x="315" 
d="M118 712v-85c0 -36 -4.16699 -66.333 -12.5 -91s-25.5 -42.667 -51.5 -54v34c22 14 33.333 45.333 34 94h-20v102h50zM243 712v-85c0 -36 -4.16699 -66.333 -12.5 -91s-25.5 -42.667 -51.5 -54v34c22 14 33.333 45.333 34 94h-20v102h50z" />
    <glyph glyph-name="quotedblbase" unicode="&#x201e;" horiz-adv-x="315" 
d="M118 102v-85c0 -36 -4.16699 -66.333 -12.5 -91s-25.5 -42.667 -51.5 -54v34c22 14 33.333 45.333 34 94h-20v102h50zM243 102v-85c0 -36 -4.16699 -66.333 -12.5 -91s-25.5 -42.667 -51.5 -54v34c22 14 33.333 45.333 34 94h-20v102h50z" />
    <glyph glyph-name="dagger" unicode="&#x2020;" 
d="M503 479v-35h-206v-589h-39v589h-205v35h205v233h39v-233h206z" />
    <glyph glyph-name="daggerdbl" unicode="&#x2021;" 
d="M502 515v-36h-205v-391h205v-36h-205v-197h-38v197h-206v36h206v391h-206v36h206v197h38v-197h205z" />
    <glyph glyph-name="bullet" unicode="&#x2022;" horiz-adv-x="500" 
d="M250 534c49.333 0 91.333 -17.5 126 -52.5s52 -76.833 52 -125.5c0 -49.333 -17.5 -91.333 -52.5 -126s-76.833 -52 -125.5 -52c-49.333 0 -91.333 17.5 -126 52.5s-52 76.833 -52 125.5c0 49.333 17.5 91.333 52.5 126s76.833 52 125.5 52z" />
    <glyph glyph-name="ellipsis" unicode="&#x2026;" horiz-adv-x="1000" 
d="M191 102v-102h-50v102h50zM524 102v-102h-50v102h50zM857 102v-102h-50v102h50z" />
    <glyph glyph-name="perthousand" unicode="&#x2030;" horiz-adv-x="1074" 
d="M610 725l-469 -756l-35 1l469 755h35zM526 327c46.667 0 83.667 -14.668 111 -44.001s41 -69.666 41 -120.999c0 -54.667 -13.167 -97 -39.5 -127s-63.166 -45 -110.499 -45c-48.667 0 -86.167 14.5 -112.5 43.5s-39.5 70.167 -39.5 123.5s13.167 95 39.5 125
s63.166 45 110.499 45zM884 326.999c47.333 0 84.333 -14.666 111 -43.999s40 -70 40 -122c0 -52.667 -13.5 -94.334 -40.5 -125.001s-63.833 -46 -110.5 -46c-48 0 -85.333 14.667 -112 44s-40 70.333 -40 123c0 53.333 13.333 95 40 125s64 45 112 45zM195 706
c47.333 0 84.5 -14.833 111.5 -44.5s40.5 -70.834 40.5 -123.501c0 -52 -13.833 -93.333 -41.5 -124s-64.834 -46 -111.501 -46c-47.333 0 -84.166 14.833 -110.499 44.5s-39.5 71.5 -39.5 125.5c0 52.667 13.333 93.834 40 123.501s63.667 44.5 111 44.5zM526 297
c-76 0 -114 -47.333 -114 -142c0 -44 9.83301 -77.667 29.5 -101s48.167 -35 85.5 -35c36.667 0 65 12.333 85 37s30 59.667 30 105c0 42.667 -10.167 76 -30.5 100s-48.833 36 -85.5 36zM884 298c-36.667 0 -65.333 -12.333 -86 -37s-31 -59 -31 -103
s10.167 -78.167 30.5 -102.5s48.833 -36.5 85.5 -36.5s65 12.333 85 37s30 59.667 30 105c0 43.333 -10 77 -30 101s-48 36 -84 36zM194.001 676c-36 0 -64.167 -12.5 -84.5 -37.5s-30.5 -59.833 -30.5 -104.5c0 -43.333 10 -76.833 30 -100.5s48.333 -35.5 85 -35.5
s65.167 12.333 85.5 37s30.5 58.667 30.5 102c0 44 -10.167 78.167 -30.5 102.5s-48.833 36.5 -85.5 36.5z" />
    <glyph glyph-name="guilsinglleft" unicode="&#x2039;" horiz-adv-x="259" 
d="M179 419v-50l-87 -102l87 -99v-49l-115 129v40z" />
    <glyph glyph-name="guilsinglright" unicode="&#x203a;" horiz-adv-x="259" 
d="M81 419l115 -129v-40l-115 -131v49l88 103l-88 99v49z" />
    <glyph glyph-name="afii61352" unicode="&#x2116;" horiz-adv-x="950" 
d="M65 0v685h53l411 -626h2v626h42v-685h-50l-414 631h-2v-631h-42zM768 126c-42.667 0 -76 13.5 -100 40.5s-36 61.833 -36 104.5s12 77.5 36 104.5s57.333 40.5 100 40.5s76 -13.5 100 -40.5s36 -61.833 36 -104.5s-12 -77.5 -36 -104.5s-57.333 -40.5 -100 -40.5z
M768 163c31.333 0 55.166 10.333 71.499 31s24.5 46.334 24.5 77.001s-8.16699 56.334 -24.5 77.001s-40.166 31 -71.499 31s-55.166 -10.333 -71.499 -31s-24.5 -46.334 -24.5 -77.001s8.16699 -56.334 24.5 -77.001s40.166 -31 71.499 -31zM910 0h-274v43h274v-43z" />
    <glyph glyph-name="trademark" unicode="&#x2122;" horiz-adv-x="990" 
d="M235 356v328h-129v28h288v-28h-129v-328h-30zM465 356v356h46l123 -315l123 315h44v-356h-27v323l-127 -323h-27l-127 323v-323h-28z" />
    <glyph glyph-name="Delta" unicode="&#x2206;" horiz-adv-x="639" 
d="M335 712l291 -712h-612l287 712h34zM65 35h507l-255 632z" />
    <glyph glyph-name="radical" unicode="&#x221a;" horiz-adv-x="600" 
d="M506 785l-215 -999h-32l-178 366l-44 -21l-13 27l73 36l173 -359l203 950h33z" />
    <glyph glyph-name="infinity" unicode="&#x221e;" horiz-adv-x="722" 
d="M361 291c2.66699 2 9.16699 7.83301 19.5 17.5s17.5 16.167 21.5 19.5l21 18c10 8.66699 17.833 14.834 23.5 18.501l23.5 14.5c10 6 18.667 10.167 26 12.5s15.833 4.66602 25.5 6.99902s18.834 3.5 27.501 3.5c37.333 0 67.666 -12.333 90.999 -37s35 -55.667 35 -93
c0 -38.667 -11.5 -70.5 -34.5 -95.5s-53.5 -37.5 -91.5 -37.5c-9.33301 0 -18.833 1 -28.5 3s-18.167 4.33301 -25.5 7s-15.833 6.83398 -25.5 12.501l-23 13.5c-5.66699 3.33301 -13.5 9.16602 -23.5 17.499s-16.833 14.166 -20.5 17.499l-21.5 19.5
c-10.667 9.66699 -17.334 15.834 -20.001 18.501l-32.5 -29c-15.667 -14 -27.667 -24.167 -36 -30.5s-19.5 -14 -33.5 -23s-28 -15.5 -42 -19.5s-28.667 -6 -44 -6c-38 0 -68.5 12.167 -91.5 36.5s-34.5 55.5 -34.5 93.5c0 36.667 11.5 67.834 34.5 93.501
s52.5 38.5 88.5 38.5c7.33301 0 14.833 -0.666992 22.5 -2s14.5 -2.83301 20.5 -4.5s13.167 -4.66699 21.5 -9l19.5 -10c4.66699 -2.33301 11.5 -6.66602 20.5 -12.999l18.5 -13c3.33301 -2.33301 9.5 -7.5 18.5 -15.5s14.5 -12.833 16.5 -14.5
s7.83301 -6.83398 17.5 -15.501s14.834 -13.334 15.501 -14.001zM383 269l27.998 -24.5c14 -12.333 24.833 -21.5 32.5 -27.5s18 -13.167 31 -21.5s25.5 -14.333 37.5 -18s24.333 -5.5 37 -5.5c28.667 0 51.334 9 68.001 27s25 42 25 72c0 28 -8.16699 51.333 -24.5 70
s-38.5 28 -66.5 28c-14 0 -28.333 -2.83301 -43 -8.5s-31.167 -15.5 -49.5 -29.5l-37 -28.5c-6.33301 -5 -19.166 -16.167 -38.499 -33.5zM337.998 269c-1.33301 1.33301 -7.83105 7.16699 -19.498 17.5s-19.5 17 -23.5 20l-22.5 17.5
c-11 8.66699 -19.667 14.834 -26 18.501s-14.5 8 -24.5 13s-19.333 8.5 -28 10.5s-17.334 3 -26.001 3c-26 0 -47.167 -9.66699 -63.5 -29s-24.5 -42.333 -24.5 -69c0 -29.333 8.16699 -53 24.5 -71s39.166 -27 68.499 -27c19.333 0 40.166 6 62.499 18
s39.833 23.167 52.5 33.5s29.334 25.166 50.001 44.499z" />
    <glyph glyph-name="approxequal" unicode="&#x2248;" horiz-adv-x="600" 
d="M557 402c-6 -32 -19 -59.166 -39 -81.499s-45.667 -33.5 -77 -33.5c-24.667 0 -72.667 12.333 -144 37l-41.5 14.5c-17.667 6.33301 -30.667 10.833 -39 13.5s-17.833 5.16699 -28.5 7.5s-20.334 3.5 -29.001 3.5c-22 0 -41 -8.16699 -57 -24.5
s-26.667 -35.833 -32 -58.5h-28c6.66699 32.667 19.667 60 39 82s45 33 77 33c10.667 0 22.5 -1.33301 35.5 -4s23.667 -5.16699 32 -7.5s21.833 -6.66602 40.5 -12.999l40 -13.5l36 -12.5c16 -5.66699 28.167 -9.83398 36.5 -12.501s18.333 -5.33398 30 -8.00098
s22.167 -4 31.5 -4c22.667 0 41.834 8 57.501 24s26.5 35.333 32.5 58h27zM557 261.001c-6 -32 -19 -59.166 -39 -81.499s-45.667 -33.5 -77 -33.5c-24.667 0 -72.667 12.333 -144 37l-41.5 14.5c-17.667 6.33301 -30.667 10.833 -39 13.5s-17.833 5.16699 -28.5 7.5
s-20.334 3.5 -29.001 3.5c-22 0 -41 -8.16699 -57 -24.5s-26.667 -35.833 -32 -58.5h-28c6.66699 32.667 19.667 60 39 82s45 33 77 33c10.667 0 22.5 -1.33301 35.5 -4s23.667 -5.16699 32 -7.5s21.833 -6.66602 40.5 -12.999l40 -13.5l36 -12.5
c16 -5.66699 28.167 -9.83398 36.5 -12.501s18.333 -5.33398 30 -8.00098s22.167 -4 31.5 -4c22.667 0 41.834 8 57.501 24s26.5 35.333 32.5 58h27z" />
    <glyph glyph-name="notequal" unicode="&#x2260;" horiz-adv-x="600" 
d="M236 194l80 150h-264v33h282l76 143l29 -15l-68 -128h170v-33h-188l-81 -150h269v-33h-286l-75 -141l-29 15l67 126h-166v33h184z" />
    <glyph glyph-name="lessequal" unicode="&#x2264;" horiz-adv-x="600" 
d="M52 260v36l489 200v-37l-445 -181l445 -180v-37zM52 19h489v-33h-489v33z" />
    <glyph glyph-name="greaterequal" unicode="&#x2265;" horiz-adv-x="600" 
d="M541 260l-489 -199v37l446 180l-446 181v37l489 -200v-36zM541 19v-33h-489v33h489z" />
    <glyph glyph-name="hyphenminus" unicode="&#xe000;" horiz-adv-x="352" 
d="M283 290v-39h-214v39h214z" />
    <glyph glyph-name="nbspace" unicode="&#xe001;" horiz-adv-x="278" 
 />
    <glyph glyph-name=".null" horiz-adv-x="0" 
 />
    <glyph glyph-name="nonmarkingreturn" horiz-adv-x="333" 
 />
    </font>
</defs>
</svg>
